<svg xmlns="http://www.w3.org/2000/svg"  viewBox="0 0 128 128" width="64px" height="64px"><path fill="#dfe8f4" d="M72,34H56c-5.5,0-10,4.5-10,10v35h0l6,0v17h24V79h6V44C82,38.5,77.5,34,72,34z"/><path fill="#fff" d="M64 4A10 10 0 1 0 64 24A10 10 0 1 0 64 4Z"/><path fill="#444b54" d="M64 27c-7.2 0-13-5.8-13-13S56.8 1 64 1s13 5.8 13 13S71.2 27 64 27zM64 7c-3.9 0-7 3.1-7 7s3.1 7 7 7 7-3.1 7-7S67.9 7 64 7zM72 31H56c-7.2 0-13 5.8-13 13v35c0 1.7 1.3 3 3 3s3-1.3 3-3V44c0-3.9 3.1-7 7-7h16c3.9 0 7 3.1 7 7v32h-3c-1.7 0-3 1.3-3 3v14H55v-5c0-1.7-1.3-3-3-3s-3 1.3-3 3v7.7c0 0 0 .1 0 .1 0 0 0 .1 0 .1 0 1.7 1.3 3 3 3h4v25c0 1.7 1.3 3 3 3s3-1.3 3-3V99h4v25c0 1.7 1.3 3 3 3s3-1.3 3-3V99h4c1.7 0 3-1.3 3-3V82h3c1.7 0 3-1.3 3-3V44C85 36.8 79.2 31 72 31z"/></svg>