<?xml version="1.0" encoding="UTF-8"?><svg id="Layer_1" xmlns="http://www.w3.org/2000/svg" xmlns:xlink="http://www.w3.org/1999/xlink" viewBox="0 0 756.24 445.44"><defs><style>.cls-1{fill:url(#_езымянный_градиент_150);}.cls-2{fill:url(#_езымянный_градиент_150-2);}.cls-3{fill:#272626;}</style><linearGradient id="_езымянный_градиент_150" x1="-168.29" y1="35.74" x2="672.76" y2="479.55" gradientTransform="matrix(1, 0, 0, 1, 0, 0)" gradientUnits="userSpaceOnUse"><stop offset="0" stop-color="#ddd9d5"/><stop offset=".3" stop-color="#d2d0d1"/><stop offset=".56" stop-color="#898489"/><stop offset=".82" stop-color="#d9d9d8"/><stop offset="1" stop-color="#959097"/></linearGradient><linearGradient id="_езымянный_градиент_150-2" x1="927.6" y1="-.14" x2="124.73" y2="525.72" xlink:href="#_езымянный_градиент_150"/></defs><path class="cls-1" d="M310.15,339.12l-1.71-1.74c-1.83,2.43-4.16,4.26-6.27,5.59-.03,.01-.06,.02-.1,.04-1.34,.83-2.7,1.57-4.09,2.16l-.08,.04c-2.34,.99-4.77,1.59-7.38,1.58-1.22,0-2.72,0-3.88-.47-1.23-.51-3.36-2.27-3.68-3.77-.27-1.3,.62-2.69,1.69-3.93,4.03-1.87,7.6-5.01,9.9-8.85,.66-1.1-.74-2.1-1.53-1.34-3.72,3.58-7.88,6.35-12.75,7.38-2.01,.43-6.15,1.06-8.08-.14-1.62-1.01-2.3-2.07-2.4-3.12,1.59-1.24,3.1-2.6,4.51-4.07,1.96-.43,3.9-1.1,5.79-2.02,.93,.33,1.91,.56,2.9,.71-2.62,1.6-5.32,3.08-8.22,4.48-.21,.1-.11,.51,.11,.48,4.48-.54,9.07-2.31,13.19-4.94,1.86-.26,3.61-.79,5.02-1.56,.66-.36,.35-1.59-.37-1.55-3.94,.21-7.74,.51-11.59-.76-3.25-1.07-6.19-3.15-4-7.53,1.06-2.12,2.86-3.34,4.64-4.63,.01,0,.01-.03,.02-.04,.94,.05,1.87,.03,2.76-.08,.73-.09,1.32-1.37,.44-1.81-3.89-1.94-8.66-2.13-11.87-5.58-3.98-4.27-3.15-9.87,.76-12.67,1.41,.02,2.82-.24,4.16-.86,1-.46,.9-2.08-.25-2.16-4.81-.35-9.89-.41-12.59-5.79-3.23-6.43,.76-12.85,6.94-13.03,.14,0,.23-.26,.08-.33-.69-.34-1.36-.52-2.03-.6,.02-.35-.09-.7-.4-.86-3.23-1.69-6.87-2.99-9.42-5.92-3.09-3.56-3.21-9.48,.84-11.42,1.41,.55,2.86,.98,4.33,1.25,.97,.18,1.7-1.29,.72-1.9-4.14-2.57-8.4-4.94-12.17-8.2-2.43-2.1-4.17-5.21-1.34-7.99,1.6-1.57,3.69-1.89,5.8-1.79,.84,.81,1.68,1.59,2.54,2.34,.86,.75,2.11-.71,1.5-1.67-.03-.05-.07-.1-.11-.16,.17,.03,.33,.05,.49,.08,.24,.04,.45-.35,.18-.49-.47-.24-.95-.47-1.43-.7-1.2-1.78-2.46-3.5-3.8-5.14-1.46-1.79-3.56-3.54-4.72-5.58-2.82-4.94,1.3-7.8,5.17-8.46,2.9-.49,5.66,.23,8.09,2.07,.13,.1,.25-.13,.13-.24-4.26-3.57-11.67-5.64-15.84-.93-12.44-7.24-26.01-14.08-34.04-27.58-1.57-2.64-5.36-7.81-3.1-11.13,.58-.85,1.56-1.25,2.51-1.3,4.75-.23,10.07,2.31,14.58,3.73,4.88,1.53,9.81,3.01,14.68,4.66,2.66,1.5,5.31,3,7.97,4.49,15.58,8.68,34.34,20.55,35.48,42.58,.54,10.44-3.55,20.37-5.34,30.43-1.51,8.5-1.67,17.16-.62,25.74,2.7,22.13,12.99,40.76,27.2,54.96,.97-1.34,1.49-2.72,.86-3.86-.22-.26-.44-.52-.66-.78-.05-.04-.09-.08-.14-.12h.04c-4.68-5.45-8.87-11.4-12.37-17.89-9.23-17.09-13.56-38.03-9.77-57.77,3.36-17.48,9.06-33.03-.16-49.66-8.72-15.73-24.38-24.11-38.93-31.33-17.81-8.84-35.59-17.8-53.44-26.54-.09-.05-.18-.05-.27-.03-1.94-1.35-3.87-2.71-5.78-4.07-16.01-11.41-31.46-23.78-47.4-35.32-2.05-1.48-4.83-3.97-7.75-5.63C106.45,66.35,76.43,28.89,40.22,.36c-1.61-1.27-3.22,1.04-2.84,2.91,7.65,38.63,24.79,75.28,48.84,102.58,5.39,7.63,11.59,14.88,18.44,21.1C70.91,110.12,37.04,93.61,3,77.56c-2.1-.99-3.53,1.92-2.82,3.88,15.57,43.08,53.26,79.19,94.49,83.88,2.91,1.27,5.96,2.41,8.89,2.7,.09,.49,.22,.97,.38,1.43-11.48-1.57-22.97-3.12-34.48-4.47-11.37-1.34-22.74-2.63-34.11-3.94-5.49-.63-11.91-2.54-17.41-1.88-1.9,.23-3.69,1.13-4.4,3.43-2.2,7.16,8.48,14.14,12.14,17.21,7.48,6.26,15.57,11.54,24,15.83,19.68,10.03,41.47,14.96,63.38,15.43-.22,.64-.36,1.31-.42,2-6.05,.65-12.09,1.32-18.13,2.06-11.36,1.38-22.72,2.8-34.08,4.22-5.48,.68-12.13,.3-17.38,2.28-1.81,.68-3.39,2.02-3.65,4.51-.79,7.73,10.97,12.19,15.13,14.4,8.49,4.51,17.41,7.87,26.46,10.17,10.65,2.71,21.59,3.98,32.57,3.97-17.17,7.14-34.32,14.37-51.41,21.75-1.95,.84-1.29,3.76,.28,4.55,21.56,10.85,47.42,13.66,71.12,7.74-5.36,2.89-10.72,5.78-16.08,8.68-4.06,2.2-9.32,3.8-12.83,7.06-1.21,1.12-2.06,2.76-1.54,5,1.59,6.99,12,7.46,15.85,8.18,7.88,1.46,15.76,1.8,23.44,1.18,6-.49,11.9-1.59,17.69-3.2-3.51,2.76-7.03,5.51-10.54,8.27-3.69,2.9-8.66,5.44-11.66,9.29-1.03,1.33-1.64,3.09-.81,5.22,2.57,6.61,12.91,5.19,16.82,5.2,7.99,.02,15.81-1.07,23.3-3.08,2.18-.59,4.34-1.26,6.47-2-1.82,1.67-3.64,3.34-5.45,5.02-3,2.76-7.2,5.19-9.45,8.85-.78,1.26-1.11,2.93-.09,4.94,3.15,6.24,12.38,4.85,15.93,4.84,6.58-.02,12.93-.91,18.94-2.52-2.12,2.32-4.88,4.58-6.24,7.5-.51,1.1-.63,2.48,.35,3.98,3.07,4.66,10.35,2.54,13.21,2.14,5.31-.74,10.36-2.16,15.07-4.13-.23,.41-.46,.83-.69,1.24-1.49,2.67-3.95,5.36-4.66,8.5-.25,1.08-.06,2.36,1.19,3.58,3.89,3.78,10.28,.7,12.88-.1,5.31-1.65,10.14-3.99,14.44-6.87,5.64-3.76,10.42-8.48,14.38-13.89,8.12-1.79,16.79-5.8,22.84-11.92,2.7,.83,5.67,.69,8.47-.15v.02s.1-.04,.15-.06c1.32-.41,2.59-.97,3.78-1.67,6.87-3.54,11.48-8.69,11.48-8.69Zm-39.54,1.27c-2.23,1.38-4.61,2.56-7.15,3.5-4.44,1.65-9.08,2.64-13.72,3.49-2.54,.47-9.11,2.38-8.66-3.62,.16-2.2,3.08-4.36,5.02-5.85,7.5-1.14,14.76-3.94,21.26-8.4-.35,.58-.62,1.24-.8,1.96-5.63,4.62-11.63,8.33-18.88,10.59-.24,.08-.14,.47,.1,.42,5.22-1.11,10.55-2.96,15.48-5.65,1.19-.26,2.39-.38,3.61-.37,.13,0,.25,0,.37,.01,.21,.33,.44,.65,.71,.94-3.81,1.92-7.72,3.6-11.93,4.89-.21,.07-.17,.43,.06,.39,3.26-.59,6.56-1.43,9.78-2.54,1.09-.12,2.19-.15,3.29-.03,.47,.05,.96,.16,1.46,.28Zm-15.4,9.78c.38-.08,.76-.18,1.14-.27-.21,.26-.43,.51-.66,.77,.06-.15,.11-.3,.17-.45-.22,0-.43-.03-.65-.05Zm-88.02-56.78c-6.82-4.32,2.22-11.26,5.41-14.34,6.55-6.32,13.55-11.92,20.79-17.16,1.74-.76,3.46-1.57,5.15-2.43,1.7-.46,3.41-.89,5.15-1.21,2.03-.37,4.2-.51,6.31-.85-3.01,2.28-5.91,4.83-8.88,6.98-6.11,4.4-12.37,8.53-18.74,12.45-.22,.13-.07,.51,.16,.4,6.34-3.24,12.56-6.71,18.63-10.53,3.09-1.95,6.53-3.89,9.7-6.14,2.48-.87,5.04-1.43,7.6-2.08,.74,.19,1.49,.35,2.23,.52-14.97,10.33-29.9,20.29-46.56,27.66-.31,.14-.18,.7,.14,.57,9.9-4.04,19.94-8.46,29.64-13.65,1.65-.53,3.3-1.04,4.95-1.55,.71-.22,1.43-.43,2.15-.65-.16,1.44,.22,3.06,1.3,4.86-2.99,1.49-5.83,3.59-8.74,5.17-4.68,2.54-9.45,4.88-14.35,6.82-.39,.15-.12,.78,.26,.65,4.92-1.73,9.82-3.45,14.64-5.51,.03,.07,.11,.12,.2,.09,4.57-1.67,9.35-2.1,14.09-1.48,.79,.47,1.63,.89,2.48,1.29-11.81,8.3-24.92,13.15-39.41,12.68-4.14-.13-9.65-.11-13.49-2.08,.32-.16,.65-.3,.97-.46-.59,.02-1.19,0-1.78,0Zm24.01-81.55c-6.41-.41-13.04,.02-19.27-.09-8.99-.16-17.97-.3-26.96-.37-.17,0-.2,.28-.03,.3,9.31,.68,18.62,1.29,27.93,1.88,5.24,.33,10.72,1.08,16.13,1.33,.96,.29,1.92,.6,2.86,.94,1.7,.62,3.34,1.45,4.98,2.28-22.66,.61-45.05,.11-68.04-2.95-.24-.03-.29,.42-.06,.47,20.64,4.4,42.46,6.85,63.96,6.23,2.3,.35,4.6,.73,6.89,1-15.52,2.67-31.18,3.9-46.89,3.12-.15,0-.17,.24-.03,.26,15.2,1.69,30.38,1.7,45.47-.43,1.8,.02,3.6,.05,5.4,.03-19.15,6.57-39.3,7.92-59.14,3.07-5.86-1.43-11.63-3.4-17.2-5.91-3.42-1.54-6.92-2.93-9.35-6.12-4.04-5.33,2.33-7.12,6-7.8,12.54-2.34,25.17-3.67,37.8-5.16,6.25,1.73,12.6,2.96,18.96,3.68,1.05,.35,2.09,.72,3.12,1.12,2.52,.96,4.95,2.18,7.46,3.14Zm-2.24-3.6c.05,0,.1,0,.15,0,.02,.03,.03,.05,.05,.08-.07-.03-.13-.05-.2-.08Zm-15.51,27.08c8.57-.6,17.07-2.33,25.25-5.19,2.08-.26,4.17-.48,6.26-.74-14.54,6.02-29.03,11.63-44.42,14.97-.18,.04-.14,.34,.04,.31,12.45-1.83,25.24-4.51,37.44-8.88,.02,0,.04,.01,.06,0,.13-.06,.26-.11,.39-.17,1.89-.69,3.77-1.41,5.63-2.18,2.5-.85,5.04-1.54,7.67-1.93,1.29-.19,2.59-.27,3.89-.32-21.3,8.07-42.47,15.71-64.8,20.41-.45,.09-.26,.85,.19,.76,17.13-3.26,34.54-7.2,51.4-12.85-1.75,1.55-2.98,3.49-3.05,5.78-4.25,1.27-8.35,3.33-12.5,4.91-6.14,2.34-12.35,4.24-18.68,5.79-.28,.07-.21,.54,.07,.49,8.08-1.36,17.38-2.51,25.64-5.5,1.09-.09,2.18-.14,3.29-.14,1.48,0,3.08,.41,4.61,.46,.55,.6,1.16,1.12,1.81,1.58-14.94,8.09-30.9,12.58-48.06,12.03-5.46-.17-11.65-.31-16.74-2.78-3.59-1.74-6.02-5.57-3.41-9.78,1.71-2.75,5.28-4.22,7.94-5.34,7.32-3.07,14.87-5.75,22.2-8.94,2.68-.8,5.32-1.71,7.89-2.76Zm23.04,68.66c4.17-2.93,8.22-6.05,12.09-9.37,3.31-1.45,6.5-3.19,9.52-5.23,4.18-1.66,8.61-2.57,13.03-2.81,1.45,.32,2.83,.58,4.06,.79,1.11,.19,2.23,.33,3.36,.44-.48,.1-.96,.18-1.43,.28-.04,0-.07,.03-.11,.03-.17,.03-.34,.06-.51,.1-.54,.12-1.02,.12-1.47,.06-8.15,4.11-16.2,8.63-24.47,12.27-.24,.1-.12,.57,.13,.49,5.51-1.79,11.23-3.64,16.88-5.78,.89-.2,1.79-.38,2.7-.52,.55-.08,1.12-.13,1.69-.19-.79,1.32-1.31,2.77-1.35,4.24-7.79,3.92-15.99,6.67-25.13,7.44-.18,.02-.18,.32,0,.32,6.6,0,13.32-.74,19.81-2.42,1.6-.14,3.21-.18,4.8-.19,.91,0,1.85,.09,2.79,.14,1.44,1.45,3.35,2.48,5.45,3.22-6.76,1.93-13.66,3.01-21,2.92-.24,0-.29,.4-.04,.43,6.51,.72,13.26,.49,19.82-.83,3.71,.33,7.55,.63,11.31,.49-2.31,.95-4.66,1.81-7.04,2.53-7.39,2.24-15.07,3.26-22.72,2.74-5.02-.34-24.23-1.76-22.17-11.61Zm28.63,15.58c8.78-.26,17.52-2.28,25.57-6.19,.58-.28,1.17-.55,1.77-.82-1.38,.92-2.74,1.94-4.05,2.96-5.77,2.61-11.62,5-17.76,6.87-.31,.09-.25,.63,.08,.57,6.51-1.32,13.19-3.1,19.63-5.58-.05,.76,.03,1.56,.28,2.42-7.39,3.82-15.22,6.37-23.88,7.49-.29,.04-.3,.51,0,.51,6.95,.19,13.95-.9,20.59-3.24,.36-.04,.72-.08,1.09-.11,1.73-.12,3.46,.03,5.19,.08,.51,.44,1.06,.84,1.65,1.2-6.21,2.21-12.54,3.87-19.38,4.51-.21,.02-.2,.41,0,.41,6.65,.09,13.64-.61,20.34-2.43,1.22-.03,2.44-.04,3.67,0,1.33,.05,2.67,.26,4,.38-7.05,3.58-14.56,5.92-22.33,6.42-4.75,.31-9.53,0-14.2-1-3.28-.7-9.18-1.51-8.16-7.78,.52-3.18,3.43-5.08,5.9-6.69Zm17.35,18.78c-.15,.09-.29,.18-.44,.27,.04-.08,.07-.16,.11-.24,.11,0,.22-.02,.33-.03Zm38.12-27.34c-1.24,.51-2.54,1.29-3.67,2.27-5.28,2.16-10.75,3.73-16.48,4.68-.26,.04-.19,.52,.06,.51,4.87-.32,9.63-1.22,14.25-2.66-1.26,2.11-1.51,4.63,.43,7.21,.53,.7,1.16,1.31,1.86,1.83-1.9,.15-3.81,.24-5.72,.21-.23-.26-.58-.36-.98-.11-.05,.03-.09,.06-.14,.09-3.74-.14-7.45-.75-11.02-2.23-2.68-1.11-4.75-4.02-4.01-7.68,.43-2.1,3.92-3.76,5.56-4.62,2.12-1.12,4.12-2.02,5.96-3.67,.03-.03,.05-.06,.07-.1,1.16-.44,2.3-.94,3.42-1.5,2.48,3.32,6.46,5.26,10.39,5.78Zm-13.59-42.29c-.23,.11-.45,.24-.66,.37-14.47,1.04-28.92,2.28-43.49,2.66-.04,0-.05,.07,0,.08,12.52,2.37,26.15,3.46,39.46,2.61-.6,1.71-.84,3.57-.59,5.34,.77,5.39,4.9,9.6,9.56,10.83-9.26,3.14-18.56,5.28-28.94,6.77-.38,.05-.39,.63,0,.67,8.34,.84,17.24-.13,25.8-2.53-.46,1.59-.52,3.4-.02,5.34,.17,.66,.4,1.28,.66,1.87-7.95,2-15.94,2.96-24.09,1.27-1.35-.28-4.85-.59-6.24-1.59-.47-.14-.92-.38-1.3-.88-1.53-1.99-2.27-4.52-.77-6.82,.13-.19,.3-.32,.45-.49,.03-.04,.07-.07,.1-.11,.24-.26,.48-.51,.76-.71,.17-.12,.35-.22,.53-.32,.21-.12,.41-.25,.64-.34,.02,0,.03,0,.05-.01,.48-.37,.96-.74,1.47-1.06,4.1-2.68,8.46-3.58,13.08-4.25,.23-.03,.36-.33,.27-.53,2.77-.6,5.5-1.42,8.14-2.53,.72-.3,.44-1.41-.31-1.28-12.81,2.31-25.76,1.58-37.91-3.89-1.12-.5-4.07-1.63-5.25-2.76-4.55-4.37-.49-7.95,2.67-9.22,2.9-1.17,5.92-2.07,8.91-2.91,6.96-1.96,14.01-2.7,21.12-3.57,.24-.03,.31-.27,.24-.45,1.53-.26,3.04-.58,4.54-.95,1.47,5.45,6.35,8.28,11.14,9.38Zm-41.81-8.5c.12-.09,.24-.18,.35-.27,.08,.01,.17,.03,.25,.04-.2,.07-.4,.15-.61,.22Zm34.26-10.98s-.1,.05-.15,.08c-.48-.25-.96-.51-1.44-.8-.15-.09-.28-.2-.42-.3,.66,.37,1.33,.71,2.01,1.03Zm-6.46-4.06c.39,.31,.8,.62,1.2,.91-12.58-.23-25.17-.36-37.74-.72-.12,0-.15,.21-.03,.23,13.69,2.49,27.9,4.08,42,4.29-1.95,1.61-3.11,4.57-2.92,7.38-14.41,.6-28.34,.01-42.33-4.78-2.43-.83-5.28-1.03-7.38-2.71-1.01-.81-1.85-2.01-2-3.39-.18-1.66,.65-3.3,1.8-4.37,3.38-3.17,8.94-3.6,13.11-4.39,8.14-1.55,16.16-1.47,24.34-2.08,.02,0,.04-.02,.06-.03,1.56,.1,3.13,.16,4.7,.16-.07,.45-.11,.9-.1,1.37,.1,3.71,2.83,6.16,5.3,8.13Zm-36.53-10.84c.25-.1,.51-.2,.76-.31-.09,.08-.17,.15-.25,.23-.17,.03-.34,.05-.51,.08Zm34.4-11.65c.54,.72,1.11,1.42,1.68,2.12-14.05-5.1-28.37-9.48-42.43-14.15-.35-.12-.49,.47-.15,.61,14.79,5.98,29.64,12.43,44.69,17.91-.83,.09-1.65,.3-2.46,.69-1.8,.84-3.29,2.42-4.01,4.38-19.35-2.29-38.52-10.44-53.08-25.29-2.69-2.75-3.79-8.78,1.07-9.13,2.68-.19,6.22,1.21,8.86,1.84,4.53,1.09,9.04,2.33,13.5,3.71,10.3,3.19,20.57,7.32,30.28,12.38,.14,1.75,.95,3.45,2.06,4.92Zm-23.32-51.95c-.49-.16-.97-.32-1.45-.47-7.17-3.75-14.16-8-20.99-12.49,7.47,4.34,14.95,8.66,22.44,12.96Zm-85.61-54.54c17.24,12.55,33.96,26.07,51.7,37.74,8.44,5.55,16.97,10.47,25.74,14.78-6.47-.83-10.92,1.09-9.92,8.63,.18,1.34,.51,2.66,.94,3.97-20.48-15.07-41.67-28.55-61.34-45.14-.13-.11-.3,.14-.17,.25,19.78,17.58,40.48,35.94,63.13,48.74,3.12,6.09,8.35,11.47,12.78,15.25,.96,.82,1.94,1.59,2.95,2.34-7.5-2.96-15.11-5.61-22.55-8.35-14.69-5.4-29.53-9.9-44.44-14.42-.15-.05-.24,.21-.09,.26,14.7,5,29.26,10.69,43.79,16.3,.91,.35,1.82,.72,2.73,1.08-4.44-1.29-10.82-2.82-15.11-1.66-21.22-7.3-42.65-13.11-63.43-22.6-.09-.04-.16,.14-.07,.18,16.88,8.53,35.03,17.44,53.45,23.06,.6,.28,1.19,.55,1.78,.84,1.35,.66,2.68,1.47,4.04,2.18-.02,.06-.04,.11-.06,.17-14.48-3.43-28.83-5.99-42.78-12.12-.11-.05-.17,.14-.06,.18,10.43,4.68,21.5,9.52,32.75,12.33,1.44,.49,2.88,1,4.3,1.59,1.86,.77,3.77,2.07,5.72,2.98,0,.04,.02,.08,.03,.12-21.05-2.51-41.38-8.71-60.23-20.43-5.65-3.51-11.45-7.3-16.48-11.89-1.01-.92-3.96-3.56-3.74-5.27,.44-3.44,3.87-4.47,6.24-4.22,3.79,.4,7.57,.96,11.34,1.57,5.99,.97,11.92,2.17,17.85,3.45,8.74,3.16,17.55,5.89,26.41,8.08,11.36,6.64,23.62,11.53,35.63,15,.91,.26,1.26-1.22,.39-1.56-18.3-7.13-36.93-15.27-52.23-28.87-3.32-3.91-6.8-7.5-10.44-10.81-5-6.06-9.32-12.83-12.61-20.24-2.08-4.69-4.98-10.91-4.52-16.36,.87-10.43,12.96,.26,16.58,2.89ZM42.61,8.17c32.76,26.83,60.5,61.26,87.5,96.27-1.92-.31-3.78,.12-5.39,1.81-.06,.06-.1,.13-.16,.19-10.08-11.82-19.95-23.87-29.27-36.6-.19-.26-.53,.06-.35,.33,8.97,13.1,18.27,26.2,28.08,38.8-.92,2.38-.88,5.2-.42,7.95-8.5-12.78-18.4-24.44-27.65-36.52-12.81-16.72-25.29-33.75-38.08-50.49-.25-.33-.66,.14-.42,.47,11.73,16.74,23.75,33.22,35.48,49.95,10.88,15.53,20.95,32.18,33.46,46.13,.35,.93,.71,1.85,1.09,2.76-3.26-2.93-6.47-5.93-9.61-9.02-14.01-13.84-27.6-29.14-38.9-45.86-.09-.13-.26,.03-.18,.16,11.17,17.09,22.83,33.13,36.73,47.54,5.08,5.27,10.46,10.69,16.08,15.84,.19,.34,.38,.68,.57,1.01-5.42-3.64-10.7-7.24-15.83-10.95C80.34,99.22,53.89,57.83,42.61,8.17Zm2.33,128.72c-16.31-13.23-29.41-31.01-38.02-51.64,34.96,16.43,70.07,32.35,105.31,47.95,4.62,3.43,9.48,6.34,14.54,8.58,3.86,3.07,7.64,6.27,11.35,9.56-6.23-2.22-12.44-4.5-18.58-6.97-19.52-7.88-38.89-16.33-57.89-25.68-.14-.07-.21,.17-.08,.24,19.04,10.29,38.34,19.92,58.09,28.38,3.58,1.53,7.18,3.08,10.8,4.61,2.58,1.3,5.13,2.67,7.65,4.1,5,2.83,9.92,6.97,15.06,9.86-16.94-7.27-34.21-13.7-51.14-20.92-25.13-10.71-49.66-23.42-73.58-37.18-.18-.1-.34,.2-.16,.31,29.83,18.35,61.4,37.56,94.03,51.81-2.56-.38-5.12-.72-7.67-1.01-1.55-.18-3.19-.3-4.73-.15-13.36-4.47-26.5-9.72-39.37-16.38-.24-.13-.37,.29-.15,.42,11.25,6.63,23.04,12.67,35.16,17.65-.56,.51-1.03,1.16-1.39,1.97-21.3-3.42-41.52-11.1-59.24-25.48Zm58.62,68.94c-17.38-1.39-34.6-5.73-50.62-13.79-8.12-4.08-15.91-9.09-23.13-15.07-3.18-2.63-7.88-5.74-10.16-9.51-2.03-3.36,.16-2.92,2.74-2.66l6.83,.69c20.55,2.08,41.11,3.89,61.68,5.67,3.7,.68,7.36,1.57,10.98,2.77,2.88,.96,5.69,2.36,8.55,3.41,.43,.35,.86,.69,1.28,1.02,1.17,.93,2.37,1.82,3.57,2.71-14.72-1.13-29.43-2.46-44.07-4.87-.35-.06-.4,.55-.06,.61,12.91,2.39,25.91,4.8,38.97,6.65,5.15,1.17,10.1,2.9,15.16,4.42,2.19,1.36,4.42,2.64,6.68,3.87-30.04-4.09-60.06-7.54-89.66-16.15-.24-.07-.34,.34-.1,.42,35.51,11.51,73.36,23.74,110.84,25.14h0c-25.3,.43-50.54-.82-75.42-7.08-.23-.06-.27,.35-.04,.41,12.13,3.21,24.48,5.91,36.92,7.73,2.96,.84,5.98,1.65,9,2.25-2.06,.37-4.02,.92-5.74,1.74-4.71,.08-9.44-.02-14.2-.4Zm-20.07,40.47c-8.71-2.16-17.27-5.33-25.46-9.61-3.61-1.89-8.79-3.89-11.73-7.13-2.62-2.89-.4-2.98,2.17-3.34l6.81-.94c19.29-2.67,38.56-5.58,57.81-8.54,.13,.39,.27,.77,.45,1.15,.9,1.95,2.38,3.5,4.12,4.78-10.87,2.05-21.76,3.95-32.76,5.2-.45,.05-.34,.82,.11,.78,9.38-.83,18.91-1.64,28.43-2.7,6,.5,11.77,1.58,17.58,2.97,2.23,.86,4.49,1.64,6.77,2.33-2.25,.2-4.5,.38-6.76,.52-23.06,1.44-46.15,1.32-69.21-.08-.23-.01-.22,.37,0,.4,23.72,2.62,47.52,3.85,71.36,3.43,7.31-.13,14.78-.26,22.28-.61,1.04,.12,2.08,.22,3.12,.3-5.47,1.69-10.98,3.25-16.63,4.34-14.37,2.78-29.09,3.74-43.63,2.43-.27-.02-.32,.44-.05,.47,14.36,1.69,28.69,2.08,43.07,.34,1.21-.15,2.43-.31,3.65-.47-4,1.33-8.03,2.97-11.04,5.94-16.74,2.5-33.84,2.15-50.48-1.98Zm39.5,39.31c-18.2,2.88-36.8,.51-53.97-6.93,17.14-7.42,34.23-14.98,51.28-22.63,1.65-.48,3.31-.87,5.01-1.05,1.69-.18,3.39,.05,5.08,.13-.09,1.16,.07,2.29,.43,3.36-9.57,4.04-18.97,8.54-28.54,12.57-.15,.06-.04,.3,.1,.25,7.58-2.61,15.24-4.93,22.86-7.41,1.77-.37,3.55-.62,5.47-.56,1.33,.04,2.64,.24,3.95,.47,1.26,1.07,2.71,1.97,4.22,2.65-15.38,4.91-31.12,8.82-47,10.71-.27,.03-.27,.51,0,.47,17.34-1.93,35.92-4.02,53.92-8.28,2.08-.07,4.15-.15,6.2-.33,.67,.05,1.34,.11,2.01,.15-12.92,4.45-26.13,8.46-39.49,10.84-.25,.04-.19,.47,.06,.43,13.35-2.15,26.58-4.4,39.67-8.15,1.12-.32,2.26-.65,3.4-.99,3.8-.48,7.62-.81,11.41-1.28-1.05,.54-2.1,1.07-3.15,1.61-4.57,1.97-9.2,3.74-13.89,5.35-2.24,.87-4.5,1.61-6.78,2.27-7.12,2.95-14.53,5.12-22.24,6.34Zm20.07,28.62c-7.38,.65-14.93,.38-22.51-.98-3.34-.6-7.93-.83-11.14-2.81-2.86-1.76-1.16-2.49,.73-3.55l5.01-2.81c16.44-9.21,32.75-18.69,49.06-28.19,3.75-1.4,7.45-2.95,11.1-4.65,2.34-1.09,4.86-2.21,7.31-3.48-5.29,3.76-10.4,7.85-15.24,12.26-10.31,6.44-20.88,12.37-32.07,17.39-.24,.11-.07,.48,.16,.4,6.4-2.3,12.84-4.87,19.22-7.73,1.64-.33,3.39-.37,5.04-.65-.25,1.06-.21,2.16,.22,3.28-11.83,6.66-24.31,11.65-37.18,15.28-.4,.11-.23,.76,.17,.69,10.39-1.97,21.56-5.04,32.52-9.33,5.28-1,10.48-1.11,15.76-.6-8.43,4.1-17.09,7.58-26.35,9.7-.18,.04-.13,.35,.04,.31,8.53-1.73,17.3-3.77,25.85-6.61,4.34-.65,8.71-.98,13.05-1.52-12.56,7.4-26.28,12.31-40.78,13.59Zm34.13,21.64c-7.19,1.98-14.68,3.07-22.35,3.11-3.38,.02-7.95,.61-11.4-.76-3.08-1.22-1.5-2.25,.22-3.64l4.55-3.68c7.89-6.38,15.71-12.85,23.52-19.34,8.01-3.3,15.7-7.6,22.96-12.75,.44-.08,.89-.14,1.33-.23-.75,.79-1.41,1.67-1.94,2.68-10.03,7.72-20.3,14.9-31.03,21.32-.15,.09-.05,.34,.11,.27,9.89-4.56,19.98-9.95,29.56-16.32,0,1.2,.22,2.26,.63,3.21-10.78,8.7-22.15,16.5-35,22.77-.18,.09-.05,.43,.13,.36,10.91-4.01,22.06-9.14,32.66-15.5,1.72-.78,3.44-1.49,5.3-1.85,1.01-.2,2.04-.28,3.06-.35,.73,.33,1.48,.63,2.23,.89-8.28,5.32-16.78,10.16-25.48,14.59-.15,.07-.05,.31,.1,.25,8.03-3.16,16.29-6.88,24.39-11.2,1.56-.55,3.17-.93,4.8-1.18,1.28-.19,2.68-.17,4.01-.36,.55,.11,1.1,.22,1.65,.32-10.26,7.9-21.64,13.98-34.03,17.39Zm7.69,21.92c-3.07,.03-7.15,.62-10.46-.66-2.95-1.14-1.64-2.12-.25-3.44l3.68-3.5c5.66-5.39,11.28-10.84,16.88-16.32,7.92-3.87,15.41-8.8,22.39-14.56,.99,.09,1.98,.16,2.97,.21-7.1,6.7-14.64,13.06-22.56,18.47-.14,.1-.04,.37,.11,.27,6.58-4.16,13.01-8.42,19.23-13.18-.45,1.15-.68,2.44-.6,3.88,.01,.23,.05,.45,.08,.67-7.8,7.96-16.61,14.78-27.13,20.03-.27,.14-.08,.66,.2,.54,8.05-3.26,16.1-7.61,23.62-12.98,1.04-.44,2.12-.79,3.25-1.01,1.78-.34,3.76,.05,5.54-.31,.76,.31,1.55,.56,2.34,.77-5.22,4.24-10.65,8.18-16.61,11.41-.27,.14-.08,.61,.19,.47,4.92-2.55,10.03-5.21,15.05-8.14,1.8-.29,3.59-.76,5.4-.99,1.4-.18,2.83-.17,4.25-.25-8.08,7.03-17.3,12.46-27.64,15.6-6.29,1.91-12.97,2.98-19.94,3.05Zm25.82,11.92c-2.46,.36-5.69,1.28-8.45,.62-2.47-.59-1.5-1.52-.5-2.74l2.65-3.22c1.85-2.24,3.68-4.51,5.51-6.77,11.07-4.06,21-10.66,29.59-19.12,.55-.01,1.1-.04,1.65-.07-1.17,1.51-2.39,2.99-3.68,4.41-8.13,8.94-17.48,15.11-26.7,22.33-.16,.12-.07,.43,.13,.36,8.74-3.07,18.56-9.28,27.24-17.15,.47,1.1,1.15,1.9,1.97,2.46-5.17,4.84-10.72,9.2-17.03,12.67-.11,.06-.03,.25,.08,.2,6.71-3.29,13.56-7.14,19.88-11.83,.62,.08,1.26,.12,1.92,.1-5.37,5.42-11.53,9.92-18.53,13.1-4.89,2.22-10.15,3.81-15.74,4.63Zm36.84,2.72c-4.11,2.79-8.72,5.06-13.8,6.69-2.24,.72-5.07,2.06-7.81,1.88-2.45-.16-1.74-1.16-1.06-2.42l1.8-3.35c1.54-2.87,3.06-5.77,4.57-8.66,7.05-3.77,13.32-8.84,18.75-14.9-.93,.28-1.83,.29-2.69,.11,2.04-.29,4.05-.8,5.7-1.15-6.15,8.95-13.31,16.77-21.46,23.43-.14,.12-.02,.37,.14,.27,6.99-4.05,14.11-9.42,20.43-15.83,.26,1.1,.81,1.94,1.54,2.55-3.45,3.72-7.15,7.21-11.29,10.32-.14,.11,.01,.38,.16,.28,4.28-2.9,8.64-6.11,12.82-9.65,1.03,.37,2.16,.48,3.21,.39-3.15,3.8-6.8,7.19-11,10.04Zm17.87-15.72c-1.32,.41-3.87,1.6-5.24,1.55-8.02-.33-4.08-3.34-2.9-5.56,.68-1.28,1.08-2.1,.93-3.29,6.65-1.77,13.43-4.59,18.64-8.96,.69-.01,1.39-.06,2.08-.15-5.3,5.47-10.93,10.38-17.62,14.27-.16,.09-.05,.4,.12,.33,6.76-2.88,13.47-6.93,19.16-12.23-.29,2.04,.44,4.11,2.75,5.63-5.49,3.93-11.59,6.47-17.92,8.42Z"/><path class="cls-2" d="M661.57,165.32c41.23-4.69,78.91-40.8,94.49-83.88,.71-1.96-.72-4.87-2.82-3.88-34.04,16.05-67.91,32.56-101.65,49.4,6.85-6.22,13.05-13.47,18.44-21.1,24.05-27.3,41.2-63.95,48.84-102.58,.37-1.88-1.24-4.18-2.84-2.91-36.21,28.52-66.24,65.99-94.1,105.7-2.92,1.66-5.7,4.15-7.75,5.63-15.94,11.53-31.39,23.91-47.4,35.32-1.91,1.36-3.84,2.72-5.78,4.07-.08-.02-.17-.02-.27,.03-17.85,8.74-35.63,17.7-53.44,26.54-14.55,7.22-30.21,15.6-38.93,31.33-9.21,16.63-3.51,32.18-.16,49.66,3.79,19.74-.54,40.68-9.77,57.77-3.5,6.49-7.7,12.44-12.37,17.88h.04c-.05,.04-.09,.08-.14,.12-.22,.26-.44,.52-.66,.78-.63,1.14-.11,2.53,.86,3.86,14.21-14.2,24.5-32.83,27.2-54.96,1.05-8.58,.89-17.24-.62-25.74-1.79-10.06-5.88-19.99-5.34-30.43,1.14-22.03,19.91-33.9,35.48-42.58,2.66-1.48,5.32-2.99,7.97-4.49,4.87-1.65,9.79-3.12,14.68-4.66,4.51-1.42,9.83-3.96,14.58-3.73,.95,.05,1.93,.45,2.51,1.3,2.26,3.32-1.53,8.49-3.1,11.13-8.02,13.5-21.59,20.35-34.04,27.58-4.17-4.71-11.58-2.64-15.84,.93-.12,.1,0,.34,.13,.24,2.42-1.84,5.19-2.56,8.09-2.07,3.87,.66,7.99,3.51,5.17,8.46-1.16,2.03-3.26,3.79-4.72,5.58-1.35,1.65-2.61,3.36-3.8,5.14-.49,.23-.96,.46-1.43,.7-.27,.14-.06,.53,.18,.49,.16-.03,.33-.05,.49-.08-.03,.05-.07,.1-.11,.16-.61,.97,.64,2.42,1.5,1.67,.86-.75,1.71-1.53,2.54-2.34,2.11-.1,4.2,.22,5.8,1.79,2.83,2.78,1.09,5.88-1.34,7.99-3.77,3.26-8.02,5.63-12.17,8.2-.98,.61-.26,2.08,.72,1.9,1.47-.27,2.92-.7,4.33-1.25,4.04,1.95,3.93,7.86,.84,11.42-2.55,2.94-6.19,4.23-9.42,5.92-.31,.16-.42,.51-.4,.86-.66,.08-1.34,.27-2.03,.6-.15,.07-.06,.33,.08,.33,6.19,.18,10.17,6.6,6.94,13.03-2.7,5.38-7.78,5.45-12.59,5.79-1.15,.08-1.26,1.7-.25,2.16,1.34,.62,2.75,.88,4.16,.86,3.91,2.81,4.75,8.4,.76,12.67-3.21,3.45-7.99,3.64-11.87,5.58-.88,.44-.29,1.71,.44,1.81,.89,.11,1.82,.14,2.76,.08,.01,.01,.01,.03,.02,.04,1.78,1.3,3.58,2.51,4.64,4.63,2.19,4.39-.75,6.46-4,7.53-3.85,1.26-7.65,.97-11.59,.76-.72-.04-1.03,1.19-.37,1.55,1.41,.78,3.16,1.31,5.02,1.56,4.12,2.62,8.71,4.4,13.19,4.94,.22,.03,.32-.38,.11-.48-2.9-1.39-5.6-2.88-8.22-4.48,1-.15,1.98-.38,2.9-.71,1.9,.92,3.83,1.59,5.79,2.02,1.41,1.47,2.92,2.83,4.51,4.07-.1,1.04-.78,2.11-2.4,3.12-1.93,1.2-6.07,.57-8.09,.14-4.87-1.03-9.03-3.8-12.75-7.38-.79-.76-2.19,.24-1.53,1.34,2.3,3.85,5.88,6.98,9.9,8.85,1.07,1.24,1.96,2.63,1.69,3.93-.32,1.5-2.45,3.26-3.68,3.77-1.16,.48-2.66,.47-3.88,.47-2.61,0-5.04-.59-7.38-1.58-.03-.01-.06-.03-.09-.04-1.39-.6-2.75-1.33-4.09-2.16-.03-.02-.06-.02-.1-.04-2.11-1.33-4.44-3.16-6.27-5.59l-1.71,1.74s4.62,5.15,11.48,8.69c1.19,.7,2.46,1.26,3.78,1.67,.05,.02,.11,.04,.16,.06v-.02c2.79,.84,5.76,.97,8.46,.15,6.05,6.11,14.72,10.13,22.84,11.92,3.96,5.41,8.74,10.13,14.38,13.89,4.3,2.87,9.13,5.21,14.44,6.87,2.59,.81,8.99,3.89,12.88,.1,1.25-1.22,1.44-2.49,1.19-3.58-.71-3.14-3.17-5.84-4.66-8.5-.23-.41-.46-.83-.69-1.24,4.71,1.97,9.76,3.39,15.07,4.13,2.85,.4,10.14,2.52,13.21-2.14,.99-1.5,.87-2.88,.35-3.98-1.36-2.92-4.12-5.18-6.24-7.5,6.02,1.61,12.36,2.5,18.94,2.52,3.55,.01,12.78,1.4,15.93-4.84,1.01-2.01,.68-3.68-.09-4.94-2.25-3.66-6.45-6.09-9.45-8.85-1.82-1.67-3.63-3.34-5.45-5.02,2.13,.74,4.29,1.41,6.47,2,7.49,2.01,15.31,3.1,23.3,3.08,3.91,0,14.25,1.41,16.82-5.2,.83-2.13,.22-3.89-.81-5.22-3-3.86-7.96-6.39-11.66-9.29-3.51-2.76-7.03-5.51-10.54-8.27,5.78,1.61,11.69,2.71,17.69,3.2,7.68,.63,15.56,.29,23.44-1.18,3.85-.72,14.26-1.19,15.85-8.18,.51-2.25-.33-3.88-1.54-5-3.51-3.26-8.77-4.87-12.83-7.06-5.36-2.9-10.72-5.78-16.08-8.68,23.7,5.92,49.56,3.1,71.12-7.74,1.56-.79,2.22-3.71,.28-4.55-17.1-7.38-34.24-14.61-51.41-21.75,10.98,.01,21.91-1.26,32.57-3.97,9.05-2.3,17.96-5.66,26.46-10.17,4.15-2.21,15.92-6.67,15.13-14.4-.25-2.49-1.84-3.82-3.65-4.51-5.25-1.98-11.89-1.6-17.38-2.28-11.36-1.41-22.72-2.84-34.08-4.22-6.04-.73-12.08-1.41-18.13-2.06-.06-.69-.2-1.36-.42-2,21.91-.47,43.7-5.4,63.38-15.43,8.42-4.29,16.52-9.57,24-15.83,3.66-3.06,14.34-10.05,12.14-17.21-.71-2.3-2.5-3.2-4.4-3.43-5.5-.66-11.93,1.25-17.41,1.88-11.37,1.31-22.74,2.6-34.11,3.94-11.51,1.35-22.99,2.9-34.48,4.47,.16-.46,.29-.94,.38-1.43,2.93-.3,5.98-1.44,8.89-2.7ZM713.64,8.17c-11.28,49.66-37.73,91.05-72.71,119.76-5.12,3.72-10.41,7.31-15.83,10.95,.19-.34,.38-.67,.57-1.01,5.62-5.15,10.99-10.57,16.08-15.84,13.9-14.41,25.56-30.45,36.73-47.54,.09-.13-.09-.3-.18-.16-11.3,16.73-24.89,32.02-38.9,45.86-3.13,3.1-6.35,6.09-9.61,9.02,.37-.91,.74-1.83,1.09-2.76,12.51-13.94,22.58-30.6,33.46-46.13,11.73-16.74,23.75-33.22,35.48-49.95,.23-.33-.17-.81-.42-.47-12.79,16.74-25.27,33.77-38.08,50.49-9.26,12.08-19.15,23.73-27.65,36.52,.46-2.75,.5-5.57-.42-7.95,9.81-12.6,19.11-25.7,28.08-38.8,.18-.26-.17-.58-.35-.33-9.32,12.73-19.19,24.78-29.27,36.6-.06-.06-.1-.13-.16-.19-1.62-1.69-3.47-2.11-5.39-1.81,27-35,54.74-69.44,87.5-96.27Zm-184.94,162.56c7.49-4.3,14.97-8.62,22.44-12.96-6.83,4.49-13.82,8.74-20.99,12.49-.48,.15-.96,.3-1.45,.47Zm2.75,29.68c4.43-3.78,9.66-9.16,12.78-15.25,22.65-12.8,43.35-31.16,63.13-48.74,.12-.11-.04-.36-.17-.25-19.67,16.59-40.86,30.07-61.34,45.14,.43-1.3,.77-2.63,.94-3.97,1-7.54-3.45-9.46-9.92-8.63,8.76-4.31,17.3-9.23,25.74-14.78,17.74-11.68,34.46-25.19,51.7-37.74,3.62-2.63,15.71-13.32,16.58-2.89,.46,5.45-2.44,11.67-4.52,16.36-3.29,7.41-7.61,14.18-12.61,20.24-3.64,3.31-7.12,6.9-10.44,10.81-15.3,13.6-33.93,21.74-52.23,28.87-.87,.34-.52,1.83,.39,1.56,12.01-3.47,24.27-8.36,35.63-15,8.86-2.19,17.67-4.92,26.41-8.08,5.92-1.28,11.86-2.47,17.85-3.45,3.77-.61,7.55-1.17,11.34-1.57,2.36-.25,5.79,.78,6.24,4.22,.22,1.72-2.73,4.35-3.74,5.27-5.02,4.59-10.83,8.38-16.48,11.89-18.86,11.72-39.18,17.92-60.23,20.43,0-.04,.02-.08,.03-.12,1.94-.91,3.86-2.21,5.72-2.98,1.42-.59,2.86-1.1,4.3-1.59,11.25-2.81,22.32-7.65,32.75-12.33,.11-.05,.04-.23-.06-.18-13.95,6.13-28.3,8.69-42.78,12.12-.02-.06-.04-.11-.06-.17,1.36-.7,2.7-1.52,4.04-2.18,.59-.29,1.19-.56,1.78-.84,18.42-5.63,36.57-14.53,53.45-23.06,.09-.05,.02-.22-.07-.18-20.77,9.49-42.21,15.3-63.43,22.6-4.29-1.16-10.67,.37-15.11,1.66,.91-.36,1.82-.73,2.73-1.08,14.53-5.6,29.09-11.3,43.79-16.3,.15-.05,.06-.3-.09-.26-14.91,4.52-29.75,9.02-44.44,14.42-7.44,2.73-15.05,5.39-22.55,8.35,1.01-.75,1.99-1.52,2.95-2.34Zm56.79,93.44c-3.84,1.97-9.35,1.94-13.49,2.08-14.48,.47-27.6-4.38-39.41-12.68,.86-.4,1.69-.83,2.48-1.29,4.74-.62,9.52-.19,14.09,1.48,.09,.03,.17-.01,.2-.09,4.82,2.07,9.72,3.78,14.64,5.51,.38,.13,.65-.49,.26-.65-4.9-1.94-9.67-4.29-14.35-6.82-2.92-1.58-5.75-3.68-8.74-5.17,1.07-1.81,1.46-3.42,1.3-4.86,.72,.22,1.45,.43,2.15,.65,1.65,.52,3.3,1.02,4.95,1.55,9.7,5.19,19.73,9.61,29.64,13.65,.32,.13,.45-.44,.14-.57-16.65-7.37-31.59-17.33-46.55-27.66,.75-.17,1.49-.33,2.23-.52,2.56,.65,5.12,1.21,7.6,2.08,3.18,2.25,6.61,4.19,9.7,6.14,6.08,3.82,12.29,7.3,18.63,10.53,.23,.12,.38-.26,.16-.4-6.36-3.91-12.63-8.04-18.74-12.45-2.98-2.15-5.88-4.7-8.88-6.98,2.11,.35,4.28,.49,6.31,.85,1.74,.32,3.45,.75,5.15,1.21,1.69,.86,3.41,1.68,5.15,2.43,7.24,5.23,14.25,10.84,20.79,17.16,3.19,3.08,12.22,10.02,5.41,14.34-.6,0-1.2,.01-1.78,0,.32,.16,.65,.3,.97,.46Zm-95.89,34.77c1.33-.13,2.67-.33,4-.38,1.23-.05,2.45-.04,3.67,0,6.7,1.82,13.68,2.52,20.34,2.43,.21,0,.22-.39,0-.41-6.83-.63-13.17-2.3-19.38-4.51,.59-.36,1.14-.75,1.65-1.2,1.73-.05,3.46-.2,5.19-.08,.36,.02,.72,.07,1.09,.11,6.64,2.33,13.63,3.43,20.59,3.24,.3,0,.28-.48,0-.51-8.67-1.11-16.49-3.67-23.88-7.49,.25-.86,.33-1.66,.28-2.42,6.44,2.47,13.12,4.25,19.63,5.58,.33,.07,.39-.47,.08-.57-6.14-1.88-11.99-4.27-17.76-6.87-1.31-1.02-2.67-2.04-4.05-2.96,.59,.27,1.19,.54,1.77,.82,8.05,3.91,16.79,5.93,25.57,6.19,2.47,1.61,5.38,3.51,5.9,6.69,1.02,6.27-4.88,7.09-8.16,7.78-4.67,.99-9.45,1.31-14.2,1-7.78-.51-15.28-2.85-22.33-6.42Zm21.87,9.99c-.14-.09-.29-.18-.44-.27,.11,0,.22,.02,.33,.03,.04,.08,.07,.16,.11,.24Zm.66-25.77c-2.38-.72-4.73-1.58-7.04-2.53,3.75,.14,7.59-.16,11.31-.49,6.56,1.32,13.3,1.55,19.82,.83,.25-.03,.2-.44-.04-.43-7.35,.09-14.24-.98-21-2.92,2.1-.74,4.01-1.77,5.45-3.22,.94-.05,1.88-.14,2.79-.14,1.59,0,3.2,.04,4.8,.19,6.5,1.68,13.22,2.42,19.81,2.42,.18,0,.18-.3,0-.32-9.14-.77-17.34-3.52-25.13-7.44-.05-1.48-.56-2.93-1.35-4.24,.57,.05,1.14,.1,1.69,.19,.9,.14,1.8,.32,2.7,.52,5.65,2.14,11.37,3.99,16.88,5.78,.25,.08,.37-.38,.13-.49-8.27-3.63-16.32-8.16-24.47-12.27-.45,.06-.94,.07-1.47-.06-.17-.03-.34-.06-.51-.1-.04,0-.07-.03-.11-.03-.47-.1-.96-.19-1.43-.28,1.12-.11,2.25-.26,3.36-.44,1.23-.21,2.61-.46,4.06-.79,4.42,.24,8.85,1.15,13.03,2.81,3.02,2.04,6.21,3.78,9.52,5.23,3.87,3.33,7.92,6.45,12.09,9.37,2.06,9.84-17.15,11.27-22.17,11.61-7.65,.51-15.33-.5-22.72-2.74Zm37.75-59.96c.66-.46,1.27-.98,1.81-1.58,1.53-.05,3.13-.46,4.61-.46,1.1,0,2.2,.06,3.29,.14,8.26,2.99,17.55,4.13,25.64,5.5,.28,.05,.34-.42,.07-.49-6.33-1.55-12.54-3.45-18.68-5.79-4.15-1.58-8.25-3.64-12.5-4.91-.07-2.29-1.31-4.22-3.05-5.78,16.86,5.66,34.27,9.59,51.4,12.85,.44,.08,.63-.67,.19-.76-22.33-4.7-43.51-12.34-64.8-20.41,1.3,.05,2.6,.13,3.89,.32,2.63,.39,5.17,1.08,7.67,1.93,1.86,.77,3.73,1.49,5.63,2.18,.13,.06,.26,.11,.39,.17,.02,0,.04,0,.06,0,12.19,4.37,24.98,7.05,37.44,8.88,.18,.03,.22-.27,.04-.31-15.39-3.34-29.89-8.95-44.42-14.97,2.08,.26,4.18,.48,6.26,.74,8.18,2.87,16.68,4.59,25.25,5.19,2.58,1.04,5.21,1.96,7.89,2.76,7.33,3.19,14.88,5.87,22.2,8.94,2.67,1.12,6.23,2.59,7.94,5.34,2.62,4.2,.18,8.03-3.41,9.78-5.08,2.47-11.27,2.61-16.74,2.78-17.17,.55-33.12-3.94-48.06-12.03Zm.08-27.05c1.79,.02,3.6-.02,5.4-.03,15.1,2.13,30.27,2.13,45.47,.43,.15-.02,.12-.26-.03-.26-15.71,.78-31.37-.45-46.89-3.12,2.29-.28,4.59-.66,6.89-1,21.5,.61,43.33-1.84,63.96-6.23,.23-.05,.18-.5-.06-.47-22.99,3.06-45.38,3.56-68.04,2.95,1.64-.82,3.28-1.65,4.98-2.28,.94-.34,1.89-.66,2.86-.94,5.41-.25,10.89-1,16.13-1.33,9.31-.59,18.63-1.2,27.93-1.88,.17-.01,.14-.3-.03-.3-8.99,.08-17.97,.22-26.96,.37-6.23,.11-12.86-.32-19.27,.09,2.51-.95,4.95-2.17,7.46-3.14,1.03-.39,2.07-.76,3.12-1.12,6.37-.72,12.71-1.96,18.96-3.68,12.63,1.5,25.26,2.82,37.8,5.16,3.68,.69,10.05,2.47,6,7.8-2.42,3.19-5.92,4.58-9.35,6.12-5.57,2.51-11.33,4.47-17.2,5.91-19.84,4.85-39.99,3.5-59.14-3.07Zm14.39-17.51s.03-.05,.05-.08c.05,0,.1,0,.15,0-.07,.03-.13,.05-.2,.08Zm-63.03,21.54c-.81-.38-1.64-.59-2.46-.69,15.04-5.48,29.9-11.93,44.69-17.91,.34-.14,.2-.73-.15-.61-14.06,4.67-28.38,9.05-42.43,14.15,.57-.7,1.14-1.4,1.68-2.12,1.11-1.48,1.91-3.17,2.06-4.92,9.71-5.06,19.97-9.2,30.28-12.38,4.46-1.38,8.97-2.62,13.5-3.71,2.64-.64,6.19-2.03,8.86-1.84,4.86,.35,3.76,6.38,1.07,9.13-14.56,14.85-33.73,23-53.08,25.29-.73-1.96-2.21-3.54-4.01-4.38Zm35.72,4.47c-.17-.03-.34-.05-.51-.08-.08-.08-.17-.15-.25-.23,.25,.1,.51,.2,.76,.31Zm-42.98,14.9c.68-.32,1.35-.66,2.01-1.03-.14,.1-.27,.21-.42,.3-.48,.29-.96,.56-1.44,.8-.05-.03-.1-.05-.15-.08Zm1.02,.66c14.09-.21,28.31-1.8,42-4.29,.12-.02,.09-.24-.03-.23-12.56,.36-25.16,.49-37.74,.72,.41-.3,.81-.6,1.2-.91,2.46-1.97,5.2-4.42,5.3-8.13,.01-.47-.03-.93-.1-1.37,1.57,0,3.14-.05,4.7-.16,.02,0,.03,.03,.06,.03,8.18,.61,16.2,.53,24.34,2.08,4.17,.79,9.73,1.22,13.11,4.39,1.14,1.07,1.98,2.71,1.8,4.37-.15,1.39-.98,2.59-2,3.39-2.1,1.68-4.96,1.88-7.38,2.71-13.99,4.79-27.92,5.37-42.33,4.78,.19-2.81-.97-5.77-2.92-7.38Zm33.23,10.31c-.2-.07-.4-.15-.61-.22,.08-.01,.17-.03,.25-.04,.12,.09,.24,.18,.35,.27Zm-46.08,30.4c4.66-1.23,8.78-5.44,9.56-10.83,.25-1.78,.01-3.64-.59-5.34,13.31,.85,26.94-.25,39.46-2.61,.04,0,.03-.08,0-.08-14.57-.38-29.02-1.63-43.49-2.66-.22-.13-.44-.26-.66-.37,4.79-1.1,9.67-3.93,11.14-9.38,1.5,.38,3.02,.7,4.54,.95-.07,.18,0,.42,.24,.45,7.11,.87,14.16,1.61,21.12,3.57,2.99,.84,6.01,1.75,8.91,2.91,3.16,1.27,7.23,4.85,2.67,9.22-1.18,1.13-4.13,2.26-5.25,2.76-12.15,5.46-25.1,6.2-37.91,3.89-.75-.14-1.03,.98-.31,1.28,2.64,1.1,5.37,1.92,8.14,2.53-.08,.19,.05,.49,.27,.53,4.62,.67,8.98,1.57,13.08,4.25,.51,.32,.99,.7,1.47,1.06,.02,0,.03,0,.05,.01,.23,.09,.43,.22,.64,.34,.18,.1,.37,.19,.53,.32,.28,.2,.52,.45,.76,.71,.03,.04,.07,.07,.1,.11,.15,.17,.32,.3,.45,.49,1.5,2.3,.76,4.84-.77,6.82-.38,.49-.83,.74-1.3,.88-1.39,1-4.89,1.32-6.24,1.59-8.15,1.69-16.14,.73-24.09-1.27,.26-.6,.49-1.21,.66-1.87,.49-1.93,.44-3.74-.02-5.34,8.56,2.4,17.46,3.37,25.8,2.53,.39-.04,.38-.62,0-.67-10.38-1.5-19.68-3.63-28.94-6.77Zm1.05,34.41s-.09-.06-.14-.09c-.39-.25-.75-.14-.98,.11-1.9,.02-3.82-.06-5.72-.21,.7-.52,1.33-1.13,1.86-1.83,1.94-2.58,1.69-5.1,.43-7.21,4.62,1.44,9.39,2.34,14.25,2.66,.25,.02,.32-.46,.06-.51-5.73-.96-11.2-2.52-16.48-4.68-1.13-.98-2.43-1.76-3.67-2.27,3.92-.51,7.9-2.46,10.39-5.78,1.12,.56,2.26,1.06,3.42,1.5,.02,.04,.04,.07,.07,.1,1.85,1.65,3.84,2.55,5.96,3.67,1.64,.87,5.13,2.52,5.56,4.62,.74,3.66-1.33,6.57-4.01,7.68-3.57,1.48-7.28,2.09-11.02,2.23Zm1.06,15.1c1.1-.11,2.2-.08,3.29,.03,3.23,1.11,6.52,1.94,9.78,2.54,.23,.04,.27-.33,.06-.39-4.2-1.29-8.12-2.97-11.93-4.89,.26-.29,.5-.6,.71-.94,.12,0,.25-.01,.37-.01,1.22,0,2.42,.11,3.61,.37,4.94,2.69,10.26,4.53,15.48,5.65,.24,.05,.35-.34,.1-.42-7.25-2.26-13.24-5.97-18.88-10.59-.18-.72-.45-1.37-.8-1.96,6.5,4.46,13.76,7.26,21.26,8.4,1.94,1.49,4.86,3.66,5.02,5.85,.44,6-6.13,4.09-8.66,3.62-4.64-.86-9.28-1.85-13.72-3.49-2.54-.94-4.92-2.13-7.15-3.5,.49-.12,.98-.23,1.46-.28Zm13.46,10.56c-.23-.26-.45-.52-.66-.77,.38,.09,.76,.18,1.14,.27-.22,.02-.43,.04-.65,.05,.06,.15,.11,.3,.17,.45Zm-9.7,6.07c-6.33-1.95-12.43-4.49-17.92-8.42,2.3-1.52,3.03-3.59,2.75-5.63,5.69,5.31,12.4,9.35,19.16,12.23,.17,.07,.28-.23,.12-.33-6.69-3.88-12.32-8.8-17.62-14.27,.69,.09,1.39,.14,2.08,.15,5.21,4.37,12,7.19,18.64,8.96-.15,1.19,.25,2.01,.93,3.29,1.18,2.22,5.11,5.24-2.9,5.56-1.37,.06-3.92-1.14-5.24-1.55Zm40.54,21.86c.68,1.27,1.39,2.26-1.06,2.42-2.74,.18-5.57-1.16-7.81-1.88-5.08-1.62-9.69-3.9-13.8-6.69-4.2-2.85-7.84-6.24-11-10.04,1.05,.09,2.18-.02,3.21-.39,4.18,3.54,8.53,6.75,12.82,9.65,.14,.1,.3-.18,.16-.28-4.14-3.11-7.84-6.6-11.29-10.32,.72-.61,1.28-1.45,1.54-2.55,6.32,6.41,13.44,11.78,20.43,15.83,.16,.09,.29-.16,.14-.27-8.15-6.67-15.3-14.49-21.46-23.43,1.64,.35,3.66,.87,5.7,1.15-.86,.18-1.76,.17-2.69-.11,5.43,6.07,11.7,11.14,18.75,14.9,1.52,2.89,3.03,5.79,4.57,8.66l1.8,3.35Zm23.11-10.99c1,1.21,1.97,2.14-.5,2.74-2.77,.67-5.99-.25-8.45-.62-5.59-.82-10.86-2.41-15.74-4.63-7-3.18-13.16-7.68-18.53-13.1,.66,.02,1.3-.02,1.92-.1,6.32,4.68,13.17,8.54,19.88,11.83,.11,.06,.19-.14,.08-.2-6.31-3.47-11.86-7.83-17.03-12.67,.82-.56,1.5-1.36,1.97-2.46,8.68,7.87,18.51,14.08,27.24,17.15,.2,.07,.29-.24,.13-.36-9.22-7.22-18.56-13.4-26.7-22.33-1.29-1.42-2.5-2.9-3.68-4.41,.55,.03,1.1,.06,1.65,.07,8.58,8.47,18.52,15.06,29.59,19.12,1.83,2.26,3.66,4.53,5.51,6.77l2.65,3.22Zm23.9-17.41l3.68,3.5c1.39,1.32,2.7,2.3-.25,3.44-3.31,1.28-7.38,.69-10.46,.66-6.97-.07-13.65-1.15-19.94-3.05-10.34-3.14-19.56-8.57-27.64-15.6,1.42,.08,2.85,.07,4.25,.25,1.81,.24,3.6,.7,5.4,.99,5.03,2.93,10.13,5.59,15.05,8.14,.27,.14,.45-.33,.19-.47-5.97-3.23-11.4-7.17-16.61-11.41,.79-.21,1.57-.47,2.34-.77,1.78,.37,3.76-.03,5.54,.31,1.13,.22,2.21,.57,3.25,1.01,7.52,5.37,15.57,9.72,23.62,12.98,.28,.11,.48-.41,.2-.54-10.52-5.25-19.32-12.07-27.13-20.03,.03-.22,.07-.43,.08-.67,.09-1.44-.15-2.72-.6-3.88,6.21,4.75,12.65,9.02,19.23,13.18,.15,.09,.25-.17,.11-.27-7.93-5.41-15.46-11.77-22.56-18.47,.99-.05,1.98-.12,2.97-.21,6.98,5.77,14.47,10.69,22.39,14.56,5.6,5.47,11.22,10.93,16.88,16.32Zm29.66-19.28l4.55,3.68c1.72,1.39,3.29,2.41,.22,3.64-3.45,1.37-8.02,.77-11.4,.76-7.68-.04-15.16-1.13-22.35-3.11-12.38-3.41-23.77-9.49-34.03-17.39,.55-.1,1.1-.2,1.65-.32,1.33,.19,2.73,.17,4.01,.36,1.64,.25,3.24,.63,4.8,1.18,8.1,4.32,16.35,8.04,24.39,11.2,.15,.06,.25-.18,.1-.25-8.7-4.43-17.2-9.27-25.48-14.59,.75-.26,1.5-.56,2.23-.89,1.02,.07,2.05,.15,3.06,.35,1.86,.36,3.58,1.08,5.3,1.85,10.6,6.36,21.75,11.49,32.66,15.5,.19,.07,.32-.27,.13-.36-12.85-6.27-24.22-14.06-35-22.77,.41-.95,.64-2.01,.63-3.21,9.58,6.37,19.67,11.76,29.56,16.32,.16,.07,.26-.18,.11-.27-10.73-6.43-21-13.6-31.03-21.32-.53-1.01-1.19-1.89-1.94-2.68,.44,.09,.89,.15,1.33,.23,7.26,5.15,14.95,9.45,22.96,12.75,7.81,6.49,15.64,12.96,23.52,19.34Zm33.05-26.83l5.01,2.81c1.89,1.06,3.6,1.79,.73,3.55-3.21,1.98-7.8,2.21-11.14,2.81-7.58,1.35-15.13,1.63-22.51,.98-14.5-1.28-28.22-6.19-40.78-13.59,4.34,.54,8.71,.87,13.05,1.52,8.55,2.84,17.32,4.89,25.85,6.61,.18,.04,.22-.27,.04-.31-9.26-2.13-17.93-5.6-26.35-9.7,5.28-.52,10.49-.4,15.76,.6,10.96,4.29,22.13,7.36,32.52,9.33,.39,.07,.57-.57,.17-.69-12.87-3.63-25.35-8.62-37.18-15.28,.43-1.12,.47-2.23,.22-3.28,1.65,.28,3.4,.31,5.04,.65,6.38,2.87,12.82,5.43,19.22,7.73,.23,.08,.4-.29,.16-.4-11.18-5.02-21.76-10.95-32.07-17.39-4.84-4.42-9.94-8.51-15.24-12.26,2.46,1.27,4.98,2.39,7.31,3.48,3.65,1.71,7.35,3.26,11.1,4.65,16.31,9.49,32.62,18.98,49.06,28.19Zm46.15-25.41c-17.18,7.44-35.77,9.82-53.97,6.93-7.72-1.22-15.12-3.39-22.24-6.34-2.28-.66-4.54-1.4-6.78-2.27-4.68-1.61-9.32-3.38-13.89-5.35-1.05-.54-2.1-1.07-3.15-1.61,3.79,.47,7.61,.8,11.41,1.28,1.14,.33,2.27,.66,3.4,.99,13.08,3.75,26.32,6,39.67,8.15,.25,.04,.31-.39,.06-.43-13.36-2.38-26.56-6.39-39.49-10.84,.67-.04,1.34-.09,2.01-.15,2.05,.18,4.12,.26,6.2,.33,18,4.27,36.58,6.35,53.92,8.28,.27,.03,.27-.44,0-.47-15.88-1.89-31.63-5.8-47-10.71,1.51-.69,2.96-1.59,4.22-2.65,1.3-.22,2.61-.42,3.95-.47,1.91-.06,3.7,.19,5.47,.56,7.62,2.48,15.28,4.8,22.86,7.41,.15,.05,.25-.19,.1-.25-9.57-4.04-18.97-8.54-28.54-12.57,.36-1.07,.52-2.2,.43-3.36,1.69-.08,3.39-.31,5.08-.13,1.7,.18,3.37,.58,5.01,1.05,17.05,7.65,34.14,15.21,51.28,22.63Zm13.74-53.4l6.81,.94c2.57,.35,4.8,.44,2.17,3.34-2.94,3.24-8.12,5.24-11.73,7.13-8.19,4.28-16.75,7.45-25.46,9.61-16.65,4.13-33.75,4.48-50.48,1.98-3.01-2.97-7.04-4.62-11.04-5.94,1.23,.17,2.45,.33,3.65,.47,14.38,1.74,28.71,1.34,43.07-.34,.27-.03,.22-.5-.05-.47-14.54,1.3-29.26,.34-43.63-2.43-5.65-1.09-11.16-2.65-16.63-4.34,1.04-.08,2.08-.19,3.12-.3,7.5,.34,14.97,.48,22.28,.61,23.84,.42,47.64-.81,71.36-3.43,.22-.02,.23-.41,0-.4-23.06,1.39-46.15,1.51-69.21,.08-2.25-.14-4.51-.32-6.76-.52,2.28-.7,4.54-1.47,6.77-2.33,5.8-1.39,11.58-2.47,17.58-2.97,9.53,1.05,19.05,1.87,28.43,2.7,.45,.04,.57-.73,.11-.78-11-1.25-21.89-3.14-32.76-5.2,1.74-1.29,3.21-2.83,4.12-4.78,.18-.38,.32-.77,.45-1.15,19.26,2.96,38.52,5.87,57.81,8.54Zm-46.61-51.34c3.63-1.2,7.28-2.09,10.98-2.77,20.56-1.78,41.13-3.58,61.68-5.67l6.83-.69c2.58-.26,4.77-.7,2.74,2.66-2.28,3.77-6.98,6.87-10.16,9.51-7.22,5.98-15.01,10.98-23.13,15.07-16.02,8.05-33.24,12.39-50.62,13.79-4.76,.38-9.49,.48-14.2,.4-1.72-.82-3.68-1.37-5.74-1.74,3.01-.6,6.03-1.41,9-2.25,12.44-1.82,24.79-4.52,36.92-7.73,.23-.06,.19-.47-.04-.41-24.89,6.27-50.13,7.51-75.42,7.08h0c37.48-1.41,75.33-13.64,110.84-25.15,.24-.08,.14-.49-.1-.42-29.6,8.6-59.62,12.06-89.66,16.15,2.26-1.24,4.49-2.52,6.68-3.87,5.07-1.52,10.01-3.25,15.16-4.42,13.06-1.85,26.06-4.26,38.97-6.65,.34-.06,.29-.67-.06-.61-14.64,2.41-29.35,3.74-44.07,4.87,1.2-.89,2.4-1.78,3.57-2.71,.42-.33,.85-.67,1.28-1.02,2.87-1.05,5.67-2.45,8.55-3.41Zm-2.3-11.57c-.36-.81-.83-1.46-1.39-1.97,12.13-4.98,23.91-11.01,35.16-17.65,.23-.13,.09-.55-.15-.42-12.87,6.67-26.01,11.92-39.37,16.38-1.53-.15-3.17-.03-4.73,.15-2.55,.3-5.11,.63-7.67,1.01,32.63-14.25,64.19-33.45,94.03-51.81,.18-.11,.02-.41-.16-.31-23.92,13.77-48.45,26.48-73.58,37.18-16.93,7.22-34.2,13.65-51.14,20.92,5.14-2.89,10.06-7.03,15.06-9.86,2.52-1.43,5.07-2.8,7.65-4.1,3.62-1.53,7.23-3.08,10.8-4.61,19.75-8.46,39.05-18.09,58.09-28.38,.13-.07,.05-.31-.08-.24-19,9.36-38.37,17.8-57.89,25.68-6.14,2.48-12.35,4.75-18.58,6.97,3.71-3.29,7.49-6.49,11.35-9.56,5.05-2.24,9.91-5.16,14.54-8.58,35.24-15.6,70.36-31.52,105.31-47.95-8.61,20.63-21.71,38.41-38.02,51.64-17.71,14.38-37.94,22.05-59.24,25.48Z"/><g><path class="cls-3" d="M352.34,355.4V186.14l-24.82-20.94,.31,190.54-.31-.35c0,33.85,.62,90.04-9,90.04h43.13c-9.62,0-9.31-56.19-9.31-90.04Z"/><path class="cls-3" d="M419.36,445.44h55.85c-13.65,0-51.51-43.97-85.33-90.04-9.93-13.61-11.48-15.01,2.79-30.36l26.68-30.71c21.41-24.43,26.37-27.22,33.82-27.22h-21.72c4.65,0,4.34,4.19-21.41,32.8l-35.37,40.13c-13.34,15.01-13.65,16.4-2.48,32.46,16.76,24.08,58.95,68.05,47.16,72.94Z"/></g></svg>