<?xml version="1.0" encoding="UTF-8"?><svg id="Layer_1" xmlns="http://www.w3.org/2000/svg" viewBox="0 0 776.02 247.41"><defs><style>.cls-1{fill:#272626;}</style></defs><path class="cls-1" d="M31.1,244.07H0c6.94,0,6.49-48.94,6.49-78.42l.22,.3L6.49,0,24.39,18.24V165.65c0,29.48-.22,78.42,6.71,78.42Zm81.9,0h-40.28c8.5-4.26-21.93-42.55-34.01-63.53-8.06-13.98-7.83-15.2,1.79-28.27l25.51-34.95c18.57-24.92,18.8-28.57,15.44-28.57h15.66c-5.37,0-8.95,2.43-24.39,23.71l-19.24,26.75c-10.29,13.37-9.17,14.59-2.01,26.44,24.39,40.12,51.69,78.42,61.54,78.42Z"/><path class="cls-1" d="M155.29,244.07h-31.1c6.94,0,6.71-48.63,6.71-78.11l-.22-165.96,17.9,18.24V165.65c0,29.48-.22,78.42,6.71,78.42Z"/><path class="cls-1" d="M236.07,246.81c-28.87,0-56.17-30.09-56.17-82.98s27.97-79.33,56.17-79.33,46.54,31.61,46.54,54.1c0,4.86-1.57,5.78-4.92,6.99l-77.87,32.22c5.59,36.47,25.73,56.84,46.54,56.84,15.22,0,30.88-10.94,41.4-34.65l1.34,1.22c-12.53,31.31-33.12,45.59-53.03,45.59Zm-36.7-72.34l56.39-22.8c8.06-3.04,9.62-5.77,9.62-12.77,0-36.78-13.2-51.67-29.31-51.67-23.94,0-37.82,25.84-37.82,68.69,0,6.69,.22,12.77,1.12,18.54Z"/><path class="cls-1" d="M336.77,246.2c-16.56,0-31.78-12.16-31.78-38.6,0-41.03,39.83-49.24,71.16-51.37v-30.7c0-25.23-9.4-37.08-20.14-37.08-11.64,0-24.84,13.98-29.54,39.82l-13.2-17.93c9.85-15.2,28.19-24.32,44.75-24.32,19.24,0,36.25,11.85,36.25,39.51v55.32c0,29.48,0,63.22,9.4,63.22h-9.4c-10.07,0-17.68-5.17-18.13-29.79-5.59,20.36-23.05,31.91-39.38,31.91Zm7.83-6.08c14.77,0,31.55-15.81,31.55-40.73v-40.12c-41.62,2.13-53.03,19.45-53.03,49.24,0,22.19,10.07,31.61,21.48,31.61Z"/><path class="cls-1" d="M542.63,244.68h-9.4c-10.07,0-18.13-5.47-18.13-31.61l.22-74.77c0-31.61-13.2-46.2-27.3-46.2-16.56,0-34.46,19.76-35.13,56.23v17.33c0,29.48-.22,78.42,6.71,78.42h-31.1c6.71,0,6.49-48.94,6.49-78.42V85.11l17.9,18.24v24.62c5.82-29.18,24.84-44.07,42.74-44.07,19.24,0,37.59,17.33,37.59,52.58v45.29c0,29.48,0,62.92,9.4,62.92Z"/><path class="cls-1" d="M605.06,247.41c-14.77,0-30.66-6.08-42.29-16.41l8.5-18.54c8.95,20.97,25.29,31.61,38.71,31.61,12.53,0,22.6-8.81,22.6-26.75,0-44.68-63.77-52.58-63.77-96.66,0-23.4,17.23-35.26,36.25-35.26,10.74,0,21.93,3.65,30.88,11.25l-6.04,14.89c-9.85-14.89-21.93-23.1-31.55-23.1s-16.11,7.9-15.44,24.62c1.34,33.13,63.77,40.73,63.77,89.06,0,31.92-19.69,45.29-41.62,45.29Z"/><path class="cls-1" d="M722.99,246.81c-28.87,0-56.17-30.09-56.17-82.98s27.97-79.33,56.17-79.33,46.54,31.61,46.54,54.1c0,4.86-1.57,5.78-4.92,6.99l-77.87,32.22c5.59,36.47,25.73,56.84,46.54,56.84,15.22,0,30.88-10.94,41.4-34.65l1.34,1.22c-12.53,31.31-33.12,45.59-53.03,45.59Zm-36.7-72.34l56.39-22.8c8.06-3.04,9.62-5.77,9.62-12.77,0-36.78-13.2-51.67-29.31-51.67-23.94,0-37.82,25.84-37.82,68.69,0,6.69,.22,12.77,1.12,18.54Z"/></svg>