<?xml version="1.0" encoding="UTF-8"?><svg id="Layer_1" xmlns="http://www.w3.org/2000/svg" xmlns:xlink="http://www.w3.org/1999/xlink" viewBox="0 0 778.21 307.94"><defs><style>.cls-1{fill:url(#_езымянный_градиент_150);}.cls-2{fill:#272626;}</style><linearGradient id="_езымянный_градиент_150" x1="586.93" y1="-5.7" x2="-88.62" y2="436.76" gradientTransform="matrix(1, 0, 0, 1, 0, 0)" gradientUnits="userSpaceOnUse"><stop offset="0" stop-color="#ddd9d5"/><stop offset=".3" stop-color="#d2d0d1"/><stop offset=".56" stop-color="#898489"/><stop offset=".82" stop-color="#d9d9d8"/><stop offset="1" stop-color="#959097"/></linearGradient></defs><g><path class="cls-2" d="M34.52,283.4H0c7.7,0,7.2-41.23,7.2-66.06l.25,.26-.25-139.81,19.87,15.36v124.19c0,24.84-.25,66.06,7.45,66.06Zm90.89,0h-44.7c9.44-3.58-24.34-35.85-37.75-53.52-8.94-11.78-8.69-12.8,1.99-23.81l28.31-29.45c20.61-21,20.86-24.07,17.13-24.07h17.38c-5.96,0-9.93,2.05-27.07,19.97l-21.36,22.53c-11.42,11.27-10.18,12.29-2.23,22.28,27.07,33.8,57.37,66.06,68.29,66.06Z"/><path class="cls-2" d="M170.62,283.4h-34.52c7.7,0,7.45-40.97,7.45-65.81l-.25-139.81,19.87,15.36v124.19c0,24.84-.25,66.06,7.45,66.06Z"/><path class="cls-2" d="M557.8,277.64h-10.43c-11.18,0-20.12-4.61-20.12-26.63l.25-62.99c0-26.63-14.65-38.92-30.3-38.92-18.38,0-38.24,16.64-38.99,47.37v14.6c0,24.84-.25,66.06,7.45,66.06h-34.52c7.45,0,7.2-41.23,7.2-66.06v-67.86l19.87,15.36v20.74c6.46-24.58,27.57-37.13,47.43-37.13,21.36,0,41.72,14.6,41.72,44.3v38.15c0,24.84,0,53.01,10.43,53.01Z"/><path class="cls-2" d="M608.55,278.79c-16.39,0-34.02-5.12-46.94-13.83l9.44-15.62c9.93,17.67,28.06,26.63,42.96,26.63,13.91,0,25.08-7.43,25.08-22.53,0-37.64-70.78-44.3-70.78-81.43,0-19.72,19.12-29.7,40.23-29.7,11.92,0,24.34,3.07,34.27,9.47l-6.71,12.55c-10.93-12.55-24.34-19.46-35.02-19.46s-17.88,6.66-17.14,20.74c1.49,27.91,70.78,34.31,70.78,75.03,0,26.89-21.85,38.15-46.19,38.15Z"/><path class="cls-2" d="M719.36,278.28c-32.04,0-62.33-25.35-62.33-69.91s31.04-66.83,62.33-66.83,51.65,26.63,51.65,45.58c0,4.1-1.74,4.87-5.46,5.89l-86.42,27.14c6.21,30.73,28.56,47.88,51.65,47.88,16.89,0,34.27-9.22,45.94-29.19l1.49,1.02c-13.91,26.37-36.75,38.41-58.86,38.41Zm-40.73-60.94l62.58-19.21c8.94-2.56,10.68-4.86,10.68-10.75,0-30.98-14.65-43.53-32.53-43.53-26.57,0-41.97,21.77-41.97,57.87,0,5.63,.25,10.75,1.24,15.62Z"/></g><path class="cls-1" d="M364.87,132.47c36.04-3.76,68.98-32.69,82.59-67.21,.62-1.57-.63-3.9-2.46-3.11-29.76,12.86-59.35,26.09-88.85,39.59,5.98-4.99,11.41-10.79,16.11-16.91,21.02-21.87,36.01-51.25,42.69-82.2,.32-1.5-1.08-3.35-2.49-2.33-31.65,22.85-57.89,52.88-82.25,84.7-2.55,1.33-4.98,3.32-6.78,4.51-13.93,9.24-27.44,19.16-41.43,28.3-1.67,1.09-3.36,2.18-5.05,3.26-.07-.01-.15-.01-.23,.02-15.61,7.01-31.14,14.18-46.71,21.27-12.72,5.79-26.4,12.5-34.02,25.1-8.05,13.32-3.07,25.78-.14,39.79,3.31,15.82-.48,32.6-8.54,46.29-3.06,5.2-6.73,9.97-10.81,14.33h.03s-.08,.06-.12,.1c-.19,.21-.38,.42-.58,.62-.55,.92-.1,2.02,.75,3.1,12.42-11.38,21.41-26.31,23.77-44.04,.92-6.88,.78-13.82-.54-20.63-1.56-8.06-5.14-16.02-4.67-24.38,1-17.65,17.4-27.16,31.02-34.12,2.33-1.19,4.65-2.39,6.97-3.59,4.26-1.32,8.56-2.5,12.83-3.73,3.95-1.14,8.59-3.17,12.74-2.99,.83,.04,1.69,.36,2.19,1.04,1.98,2.66-1.34,6.8-2.71,8.92-7.01,10.82-18.87,16.3-29.75,22.1-3.65-3.77-10.12-2.12-13.85,.75-.11,.08,0,.27,.11,.19,2.12-1.48,4.54-2.05,7.07-1.66,3.38,.53,6.98,2.81,4.52,6.78-1.01,1.63-2.85,3.04-4.12,4.47-1.18,1.32-2.28,2.7-3.32,4.12-.42,.18-.84,.37-1.25,.56-.23,.11-.05,.42,.16,.39,.14-.02,.29-.04,.43-.06-.03,.04-.06,.08-.09,.13-.54,.78,.56,1.94,1.31,1.34,.75-.6,1.49-1.23,2.22-1.87,1.85-.08,3.67,.18,5.07,1.43,2.48,2.22,.95,4.71-1.17,6.4-3.29,2.61-7.01,4.51-10.63,6.57-.86,.49-.22,1.66,.63,1.52,1.29-.22,2.55-.56,3.79-1,3.54,1.56,3.43,6.3,.73,9.15-2.22,2.35-5.41,3.39-8.23,4.75-.27,.13-.37,.41-.35,.69-.58,.07-1.17,.21-1.77,.48-.13,.06-.05,.26,.07,.27,5.41,.14,8.89,5.29,6.07,10.44-2.36,4.31-6.8,4.36-11,4.64-1.01,.07-1.1,1.36-.22,1.73,1.17,.49,2.4,.7,3.64,.69,3.42,2.25,4.15,6.73,.67,10.15-2.81,2.76-6.98,2.92-10.38,4.47-.77,.35-.26,1.37,.38,1.45,.78,.09,1.59,.11,2.41,.07,0,0,0,.02,.02,.03,1.55,1.04,3.13,2.01,4.05,3.71,1.92,3.51-.65,5.18-3.5,6.04-3.36,1.01-6.69,.78-10.13,.61-.63-.03-.9,.95-.32,1.24,1.23,.62,2.76,1.05,4.39,1.25,3.6,2.1,7.61,3.52,11.53,3.96,.19,.02,.28-.31,.1-.38-2.53-1.12-4.9-2.31-7.19-3.59,.87-.12,1.73-.3,2.54-.57,1.66,.74,3.35,1.27,5.06,1.62,1.23,1.18,2.55,2.27,3.94,3.27-.09,.84-.68,1.69-2.1,2.5-1.69,.96-5.31,.46-7.07,.12-4.26-.83-7.89-3.05-11.15-5.91-.69-.61-1.91,.19-1.34,1.07,2.01,3.08,5.14,5.6,8.66,7.09,.93,1,1.72,2.11,1.48,3.15-.28,1.2-2.14,2.61-3.22,3.02-1.01,.38-2.33,.38-3.39,.38-2.28,0-4.41-.47-6.45-1.27-.02,0-.05-.02-.08-.03-1.22-.48-2.4-1.07-3.58-1.73-.03-.02-.06-.02-.08-.03-1.84-1.06-3.88-2.53-5.48-4.48l-1.49,1.4s4.03,4.12,10.04,6.96c1.04,.56,2.15,1.01,3.3,1.34,.05,.02,.09,.03,.14,.05h0c2.45,.66,5.04,.77,7.4,.1,5.28,4.9,12.86,8.12,19.96,9.55,3.46,4.34,7.64,8.11,12.57,11.13,3.76,2.3,7.98,4.18,12.62,5.5,2.27,.65,7.85,3.11,11.26,.08,1.09-.98,1.26-2,1.04-2.87-.62-2.52-2.77-4.68-4.07-6.81-.2-.33-.4-.66-.61-.99,4.12,1.58,8.53,2.72,13.17,3.31,2.49,.32,8.86,2.02,11.54-1.71,.86-1.2,.76-2.31,.31-3.19-1.19-2.34-3.6-4.15-5.46-6.01,5.26,1.29,10.8,2,16.56,2.02,3.11,0,11.17,1.12,13.92-3.88,.89-1.61,.6-2.95-.08-3.96-1.97-2.94-5.64-4.88-8.26-7.09-1.59-1.34-3.18-2.68-4.77-4.02,1.86,.59,3.75,1.13,5.66,1.6,6.54,1.61,13.38,2.48,20.37,2.47,3.41,0,12.45,1.13,14.7-4.17,.72-1.7,.2-3.12-.71-4.18-2.62-3.09-6.96-5.12-10.19-7.45-3.07-2.21-6.14-4.42-9.21-6.63,5.06,1.29,10.22,2.17,15.46,2.56,6.71,.5,13.6,.23,20.48-.94,3.37-.57,12.46-.95,13.86-6.55,.45-1.8-.29-3.11-1.35-4.01-3.07-2.62-7.67-3.9-11.22-5.66-4.68-2.32-9.37-4.64-14.05-6.95,20.72,4.74,43.32,2.49,62.16-6.21,1.37-.63,1.94-2.97,.24-3.65-14.94-5.91-29.93-11.7-44.94-17.43,9.6,0,19.15-1.01,28.47-3.18,7.91-1.84,15.7-4.54,23.12-8.15,3.63-1.77,13.91-5.35,13.22-11.54-.22-1.99-1.61-3.06-3.19-3.61-4.59-1.59-10.39-1.28-15.19-1.83-9.93-1.13-19.86-2.27-29.79-3.38-5.28-.59-10.56-1.13-15.85-1.65-.05-.55-.18-1.09-.37-1.6,19.15-.38,38.2-4.32,55.4-12.36,7.36-3.44,14.44-7.67,20.97-12.68,3.2-2.45,12.53-8.05,10.61-13.79-.62-1.85-2.19-2.57-3.84-2.75-4.81-.53-10.42,1-15.22,1.51-9.94,1.05-19.88,2.08-29.81,3.15-10.06,1.08-20.1,2.32-30.14,3.58,.14-.37,.25-.75,.33-1.14,2.56-.24,5.23-1.15,7.77-2.17ZM410.38,6.55c-9.86,39.79-32.98,72.96-63.55,95.97-4.48,2.98-9.1,5.86-13.83,8.78,.17-.27,.33-.54,.49-.81,4.91-4.13,9.61-8.47,14.05-12.69,12.15-11.55,22.34-24.4,32.1-38.1,.08-.11-.08-.24-.15-.13-9.88,13.4-21.75,25.66-34,36.75-2.74,2.48-5.55,4.88-8.4,7.23,.33-.73,.65-1.46,.95-2.21,10.94-11.17,19.73-24.52,29.25-36.96,10.25-13.41,20.76-26.62,31.01-40.03,.2-.27-.15-.65-.37-.38-11.18,13.41-22.09,27.06-33.29,40.46-8.09,9.68-16.74,19.02-24.17,29.26,.4-2.2,.44-4.46-.37-6.37,8.57-10.1,16.71-20.6,24.54-31.09,.16-.21-.15-.47-.31-.26-8.14,10.2-16.77,19.86-25.58,29.33-.05-.05-.09-.1-.14-.15-1.41-1.35-3.03-1.69-4.71-1.45,23.6-28.05,47.85-55.64,76.48-77.14ZM248.73,136.81c6.55-3.44,13.08-6.91,19.61-10.38-5.97,3.6-12.08,7.01-18.34,10.01-.42,.12-.84,.24-1.27,.37Zm2.4,23.78c3.87-3.03,8.45-7.34,11.17-12.22,19.8-10.25,37.89-24.97,55.18-39.05,.11-.09-.04-.29-.15-.2-17.19,13.29-35.72,24.1-53.61,36.17,.38-1.04,.67-2.1,.82-3.18,.87-6.04-3.01-7.58-8.67-6.91,7.66-3.45,15.12-7.39,22.49-11.84,15.5-9.36,30.12-20.18,45.19-30.24,3.16-2.11,13.73-10.67,14.49-2.32,.4,4.37-2.13,9.35-3.95,13.11-2.88,5.94-6.65,11.36-11.02,16.22-3.18,2.65-6.22,5.53-9.12,8.66-13.37,10.9-29.66,17.42-45.65,23.13-.76,.27-.46,1.46,.34,1.25,10.49-2.78,21.21-6.7,31.14-12.02,7.74-1.75,15.44-3.94,23.08-6.47,5.18-1.02,10.37-1.98,15.6-2.76,3.29-.49,6.6-.94,9.91-1.26,2.07-.2,5.06,.62,5.45,3.38,.19,1.38-2.38,3.49-3.27,4.22-4.39,3.68-9.46,6.72-14.4,9.53-16.48,9.39-34.24,14.36-52.65,16.37,0-.03,.01-.07,.02-.1,1.7-.73,3.37-1.77,5-2.39,1.24-.47,2.5-.88,3.76-1.27,9.84-2.25,19.51-6.13,28.63-9.88,.09-.04,.04-.19-.06-.15-12.2,4.91-24.74,6.97-37.39,9.71-.02-.05-.04-.09-.05-.13,1.19-.56,2.36-1.22,3.53-1.74,.52-.23,1.04-.45,1.56-.67,16.1-4.51,31.97-11.64,46.72-18.48,.08-.04,.02-.18-.06-.14-18.16,7.61-36.89,12.26-55.44,18.11-3.75-.93-9.32,.3-13.21,1.33,.8-.29,1.59-.59,2.39-.87,12.7-4.49,25.43-9.06,38.28-13.06,.13-.04,.05-.24-.08-.21-13.04,3.62-26,7.23-38.84,11.55-6.5,2.19-13.15,4.32-19.71,6.69,.88-.6,1.74-1.22,2.58-1.87Zm49.63,74.87c-3.36,1.58-8.17,1.56-11.8,1.67-12.66,.37-24.12-3.51-34.45-10.16,.75-.32,1.47-.66,2.17-1.04,4.14-.49,8.32-.15,12.31,1.18,.08,.03,.15-.01,.17-.07,4.21,1.66,8.5,3.03,12.8,4.42,.33,.11,.57-.4,.23-.52-4.28-1.56-8.45-3.43-12.54-5.47-2.55-1.27-5.03-2.95-7.64-4.14,.94-1.45,1.28-2.74,1.13-3.89,.63,.18,1.27,.34,1.88,.52,1.44,.41,2.89,.82,4.32,1.25,8.47,4.16,17.25,7.7,25.9,10.94,.28,.11,.39-.35,.12-.46-14.56-5.9-27.61-13.89-40.69-22.16,.65-.14,1.31-.26,1.95-.41,2.24,.52,4.48,.97,6.64,1.67,2.78,1.81,5.78,3.36,8.48,4.92,5.31,3.06,10.75,5.85,16.28,8.44,.2,.09,.33-.21,.14-.32-5.56-3.14-11.04-6.45-16.38-9.97-2.6-1.72-5.14-3.76-7.77-5.59,1.84,.28,3.74,.39,5.51,.68,1.52,.25,3.01,.6,4.5,.97,1.48,.69,2.98,1.35,4.5,1.95,6.33,4.19,12.45,8.68,18.17,13.75,2.79,2.46,10.68,8.03,4.73,11.49-.52,0-1.04,0-1.56,0,.28,.13,.56,.24,.84,.37Zm-83.81,27.86c1.17-.1,2.33-.26,3.5-.31,1.07-.04,2.14-.03,3.21,0,5.85,1.46,11.96,2.02,17.77,1.94,.18,0,.19-.31,0-.33-5.97-.51-11.51-1.84-16.93-3.61,.51-.29,1-.6,1.44-.96,1.51-.04,3.03-.16,4.54-.06,.32,.02,.63,.06,.95,.08,5.8,1.87,11.91,2.75,17.99,2.59,.26,0,.25-.38,0-.41-7.57-.89-14.41-2.94-20.87-6,.22-.69,.29-1.33,.25-1.94,5.63,1.98,11.46,3.41,17.16,4.47,.29,.05,.34-.38,.07-.45-5.36-1.5-10.48-3.42-15.52-5.51-1.14-.81-2.33-1.63-3.54-2.37,.52,.21,1.04,.43,1.54,.66,7.04,3.13,14.68,4.75,22.35,4.96,2.16,1.29,4.7,2.81,5.16,5.36,.9,5.03-4.26,5.68-7.13,6.24-4.08,.8-8.26,1.05-12.41,.8-6.8-.41-13.36-2.28-19.52-5.15Zm19.11,8.01c-.12-.07-.25-.14-.38-.22,.1,0,.19,.02,.29,.03,.03,.06,.06,.13,.09,.19Zm.58-20.65c-2.08-.58-4.13-1.26-6.15-2.03,3.28,.11,6.64-.13,9.88-.39,5.73,1.05,11.63,1.24,17.32,.66,.22-.02,.18-.35-.04-.35-6.42,.07-12.45-.79-18.36-2.34,1.83-.59,3.5-1.42,4.76-2.58,.82-.04,1.65-.12,2.44-.12,1.39,0,2.8,.03,4.19,.15,5.68,1.35,11.55,1.94,17.32,1.94,.16,0,.16-.24,0-.25-7.99-.62-15.16-2.82-21.97-5.97-.04-1.18-.49-2.35-1.18-3.4,.5,.04,1,.08,1.48,.15,.79,.11,1.58,.26,2.36,.42,4.94,1.72,9.94,3.2,14.76,4.63,.22,.06,.32-.31,.11-.39-7.23-2.91-14.26-6.54-21.39-9.83-.4,.05-.82,.05-1.29-.04-.15-.03-.3-.05-.44-.08-.03,0-.06-.02-.09-.03-.41-.08-.83-.15-1.25-.22,.98-.09,1.96-.21,2.94-.36,1.07-.16,2.28-.37,3.55-.63,3.86,.2,7.73,.92,11.39,2.25,2.64,1.64,5.43,3.03,8.32,4.19,3.38,2.67,6.93,5.17,10.57,7.51,1.8,7.89-14.99,9.03-19.37,9.3-6.68,.41-13.4-.4-19.86-2.2Zm33-48.04c.58-.37,1.11-.78,1.59-1.26,1.33-.04,2.73-.37,4.03-.37,.96,0,1.92,.05,2.87,.12,7.22,2.39,15.34,3.31,22.41,4.4,.25,.04,.3-.34,.06-.39-5.53-1.24-10.96-2.77-16.33-4.64-3.63-1.27-7.21-2.92-10.92-3.93-.06-1.83-1.14-3.39-2.67-4.63,14.74,4.53,29.96,7.69,44.93,10.3,.39,.07,.55-.54,.16-.61-19.52-3.77-38.03-9.89-56.64-16.36,1.14,.04,2.27,.11,3.4,.26,2.3,.31,4.52,.86,6.7,1.55,1.62,.62,3.26,1.2,4.92,1.75,.11,.04,.23,.09,.34,.13,.02,0,.04,0,.06,0,10.66,3.5,21.83,5.65,32.72,7.11,.16,.02,.19-.22,.04-.25-13.45-2.68-26.12-7.17-38.83-12,1.82,.21,3.65,.38,5.47,.59,7.15,2.3,14.58,3.68,22.07,4.16,2.25,.84,4.56,1.57,6.9,2.21,6.41,2.56,13.01,4.7,19.41,7.16,2.33,.9,5.45,2.08,6.94,4.28,2.29,3.37,.16,6.44-2.98,7.83-4.44,1.98-9.85,2.09-14.63,2.23-15,.44-28.95-3.16-42.01-9.64Zm.07-21.67c1.57,.01,3.14-.01,4.72-.03,13.19,1.71,26.46,1.7,39.74,.34,.13-.01,.11-.21-.02-.2-13.73,.62-27.42-.36-40.99-2.5,2-.22,4.01-.52,6.02-.8,18.79,.49,37.87-1.47,55.91-4.99,.2-.04,.16-.4-.05-.37-20.09,2.46-39.66,2.85-59.47,2.37,1.43-.66,2.86-1.33,4.35-1.82,.82-.28,1.65-.53,2.5-.76,4.73-.2,9.52-.8,14.1-1.07,8.14-.48,16.28-.96,24.42-1.51,.15,0,.12-.24-.03-.24-7.86,.06-15.71,.17-23.56,.3-5.44,.09-11.24-.26-16.84,.07,2.19-.76,4.32-1.74,6.52-2.51,.9-.32,1.81-.61,2.72-.89,5.56-.58,11.11-1.57,16.57-2.95,11.04,1.2,22.07,2.26,33.03,4.14,3.21,.55,8.78,1.98,5.25,6.25-2.12,2.56-5.18,3.67-8.17,4.91-4.87,2.01-9.91,3.58-15.03,4.73-17.34,3.89-34.95,2.81-51.69-2.46Zm12.57-14.03s.03-.04,.04-.06c.04,0,.09,0,.13,0-.06,.02-.12,.04-.17,.07Zm-55.09,17.26c-.71-.31-1.43-.48-2.15-.55,13.15-4.39,26.13-9.56,39.06-14.36,.29-.11,.18-.58-.13-.49-12.29,3.74-24.81,7.26-37.09,11.34,.5-.56,1-1.12,1.47-1.7,.97-1.18,1.67-2.54,1.8-3.94,8.48-4.06,17.46-7.37,26.46-9.92,3.9-1.11,7.84-2.1,11.8-2.97,2.31-.51,5.41-1.63,7.75-1.48,4.25,.28,3.29,5.11,.94,7.31-12.72,11.9-29.48,18.43-46.39,20.27-.63-1.57-1.93-2.84-3.51-3.51Zm31.22,3.58c-.15-.02-.3-.04-.44-.06-.07-.06-.15-.12-.22-.18,.22,.08,.44,.16,.67,.25Zm-37.57,11.94c.59-.26,1.18-.53,1.75-.82-.12,.08-.23,.17-.37,.24-.42,.23-.84,.45-1.26,.64-.04-.02-.09-.04-.13-.06Zm.9,.53c12.32-.17,24.75-1.45,36.71-3.44,.1-.02,.08-.19-.03-.19-10.98,.29-21.99,.39-32.99,.57,.35-.24,.71-.48,1.05-.73,2.15-1.58,4.55-3.54,4.63-6.51,.01-.38-.03-.74-.09-1.1,1.37,0,2.74-.04,4.11-.13,.02,0,.03,.02,.05,.02,7.15,.49,14.16,.43,21.27,1.67,3.65,.64,8.5,.98,11.46,3.52,1,.86,1.73,2.17,1.57,3.5-.13,1.11-.86,2.07-1.75,2.72-1.84,1.34-4.33,1.51-6.45,2.17-12.23,3.84-24.4,4.31-37,3.83,.17-2.25-.85-4.62-2.55-5.91Zm29.05,8.26c-.18-.06-.35-.12-.53-.18,.07-.01,.15-.02,.22-.04,.1,.07,.21,.14,.31,.21Zm-40.27,24.36c4.07-.98,7.68-4.36,8.35-8.68,.22-1.42,0-2.91-.51-4.28,11.63,.68,23.55-.2,34.49-2.1,.04,0,.02-.06,0-.06-12.73-.31-25.36-1.31-38.01-2.14-.19-.11-.38-.21-.58-.3,4.19-.88,8.45-3.15,9.74-7.51,1.31,.3,2.64,.56,3.97,.76-.06,.15,0,.34,.21,.36,6.22,.7,12.38,1.29,18.46,2.86,2.61,.67,5.25,1.4,7.78,2.33,2.76,1.02,6.32,3.89,2.34,7.39-1.03,.9-3.61,1.81-4.59,2.21-10.62,4.38-21.94,4.97-33.14,3.11-.65-.11-.9,.79-.27,1.03,2.31,.88,4.69,1.54,7.12,2.02-.07,.15,.04,.4,.24,.42,4.04,.54,7.85,1.26,11.43,3.41,.45,.26,.87,.56,1.29,.85,.01,0,.03,0,.04,.01,.2,.07,.37,.18,.56,.27,.16,.08,.32,.15,.47,.25,.24,.16,.45,.36,.66,.57,.03,.03,.06,.06,.09,.09,.13,.13,.28,.24,.39,.39,1.31,1.84,.66,3.87-.67,5.47-.33,.39-.73,.59-1.14,.7-1.21,.8-4.28,1.05-5.45,1.28-7.12,1.35-14.11,.59-21.06-1.02,.23-.48,.43-.97,.58-1.5,.43-1.55,.38-3-.02-4.28,7.48,1.92,15.26,2.7,22.55,2.03,.34-.03,.33-.5,0-.54-9.07-1.2-17.2-2.91-25.3-5.43Zm.92,27.57s-.08-.05-.12-.07c-.35-.2-.65-.12-.85,.09-1.66,.02-3.34-.05-5-.17,.61-.42,1.16-.9,1.63-1.47,1.7-2.07,1.48-4.09,.38-5.78,4.04,1.15,8.2,1.87,12.46,2.13,.22,.01,.28-.37,.05-.41-5.01-.77-9.79-2.02-14.4-3.75-.99-.78-2.12-1.41-3.21-1.82,3.43-.41,6.91-1.97,9.08-4.63,.98,.45,1.98,.85,2.99,1.2,.02,.03,.04,.06,.06,.08,1.61,1.32,3.36,2.04,5.21,2.94,1.43,.7,4.49,2.02,4.86,3.71,.65,2.94-1.16,5.26-3.5,6.15-3.12,1.19-6.36,1.68-9.63,1.79Zm.92,12.1c.96-.09,1.92-.07,2.88,.03,2.82,.89,5.7,1.56,8.55,2.03,.2,.03,.24-.26,.05-.31-3.67-1.03-7.09-2.38-10.43-3.92,.23-.23,.44-.48,.62-.75,.11,0,.22-.01,.33-.01,1.07,0,2.12,.09,3.15,.3,4.31,2.16,8.97,3.63,13.53,4.52,.21,.04,.3-.28,.09-.34-6.33-1.81-11.58-4.78-16.5-8.48-.15-.58-.39-1.1-.7-1.57,5.68,3.57,12.03,5.81,18.58,6.73,1.69,1.2,4.25,2.93,4.39,4.69,.39,4.81-5.35,3.28-7.57,2.9-4.06-.69-8.11-1.48-12-2.8-2.22-.75-4.3-1.7-6.25-2.81,.43-.09,.86-.18,1.27-.22Zm11.77,8.46c-.2-.21-.39-.41-.58-.62,.33,.07,.67,.15,1,.22-.19,.01-.38,.04-.57,.04,.05,.12,.1,.24,.15,.36Zm-8.48,4.86c-5.53-1.56-10.87-3.6-15.66-6.75,2.01-1.22,2.65-2.88,2.4-4.51,4.97,4.25,10.84,7.49,16.75,9.8,.15,.06,.24-.19,.11-.26-5.85-3.11-10.77-7.05-15.4-11.43,.61,.08,1.21,.11,1.82,.12,4.55,3.5,10.49,5.76,16.29,7.18-.13,.95,.22,1.61,.81,2.63,1.03,1.78,4.47,4.2-2.54,4.46-1.2,.04-3.42-.91-4.58-1.24Zm35.43,17.52c.59,1.01,1.21,1.81-.93,1.94-2.4,.14-4.87-.93-6.83-1.51-4.44-1.3-8.47-3.12-12.06-5.36-3.67-2.28-6.86-5-9.61-8.04,.92,.07,1.91-.01,2.8-.31,3.65,2.83,7.46,5.41,11.2,7.73,.13,.08,.26-.14,.14-.23-3.62-2.49-6.85-5.29-9.86-8.27,.63-.49,1.12-1.16,1.34-2.05,5.52,5.13,11.75,9.44,17.86,12.68,.14,.08,.25-.12,.12-.22-7.12-5.34-13.38-11.61-18.75-18.78,1.44,.28,3.2,.7,4.98,.92-.75,.14-1.54,.14-2.35-.09,4.74,4.86,10.23,8.92,16.38,11.94,1.32,2.32,2.65,4.64,4,6.94l1.57,2.69Zm20.2-8.81c.88,.97,1.72,1.72-.44,2.19-2.42,.53-5.23-.2-7.39-.49-4.89-.66-9.49-1.93-13.76-3.71-6.12-2.55-11.51-6.15-16.2-10.5,.58,.01,1.13-.02,1.67-.08,5.53,3.75,11.51,6.84,17.38,9.48,.1,.04,.17-.11,.07-.16-5.52-2.78-10.36-6.27-14.88-10.16,.72-.45,1.31-1.09,1.73-1.97,7.59,6.31,16.18,11.28,23.81,13.74,.18,.06,.25-.19,.12-.29-8.06-5.79-16.23-10.74-23.33-17.9-1.13-1.13-2.19-2.32-3.21-3.53,.48,.02,.96,.04,1.44,.06,7.5,6.78,16.19,12.07,25.86,15.32,1.6,1.81,3.2,3.63,4.82,5.43l2.32,2.58Zm20.89-13.95l3.22,2.81c1.21,1.06,2.36,1.84-.22,2.76-2.89,1.03-6.45,.55-9.14,.53-6.1-.06-11.93-.92-17.43-2.45-9.04-2.51-17.1-6.87-24.16-12.5,1.24,.06,2.49,.06,3.71,.2,1.58,.19,3.15,.56,4.72,.8,4.4,2.35,8.86,4.48,13.16,6.53,.23,.11,.4-.26,.17-.38-5.22-2.59-9.96-5.74-14.52-9.14,.69-.17,1.38-.37,2.04-.62,1.55,.29,3.29-.02,4.84,.25,.99,.17,1.93,.46,2.84,.81,6.57,4.3,13.61,7.79,20.65,10.4,.24,.09,.42-.33,.18-.44-9.2-4.21-16.89-9.67-23.71-16.05,.03-.18,.06-.35,.07-.53,.08-1.15-.13-2.18-.52-3.11,5.43,3.81,11.06,7.23,16.81,10.56,.13,.08,.22-.14,.1-.22-6.93-4.34-13.51-9.43-19.72-14.8,.87-.04,1.73-.09,2.59-.17,6.1,4.62,12.65,8.56,19.57,11.67,4.9,4.39,9.81,8.76,14.76,13.08Zm25.92-15.45l3.97,2.95c1.5,1.11,2.88,1.93,.19,2.91-3.02,1.1-7.01,.62-9.96,.61-6.71-.03-13.25-.91-19.54-2.49-10.82-2.73-20.77-7.6-29.74-13.93,.48-.08,.96-.16,1.44-.25,1.16,.15,2.39,.13,3.5,.29,1.43,.2,2.83,.5,4.2,.94,7.08,3.46,14.29,6.44,21.31,8.98,.13,.05,.22-.14,.09-.2-7.61-3.55-15.04-7.43-22.27-11.69,.66-.21,1.31-.45,1.95-.71,.89,.06,1.79,.12,2.67,.28,1.63,.29,3.13,.86,4.64,1.48,9.27,5.09,19.01,9.2,28.55,12.42,.16,.05,.28-.22,.12-.29-11.24-5.02-21.17-11.27-30.59-18.24,.36-.76,.56-1.61,.55-2.57,8.38,5.1,17.19,9.42,25.84,13.08,.14,.06,.23-.14,.1-.22-9.38-5.15-18.36-10.9-27.12-17.09-.46-.81-1.04-1.51-1.69-2.15,.39,.07,.77,.12,1.16,.19,6.34,4.13,13.07,7.57,20.07,10.22,6.83,5.2,13.67,10.38,20.56,15.49Zm28.88-21.5l4.38,2.25c1.65,.85,3.14,1.43,.64,2.85-2.81,1.58-6.82,1.77-9.74,2.25-6.63,1.08-13.22,1.31-19.67,.78-12.67-1.03-24.67-4.96-35.64-10.89,3.79,.44,7.61,.7,11.4,1.22,7.47,2.27,15.14,3.91,22.59,5.3,.16,.03,.19-.22,.04-.25-8.1-1.7-15.67-4.49-23.03-7.77,4.62-.41,9.17-.32,13.78,.48,9.58,3.44,19.34,5.89,28.43,7.47,.34,.06,.5-.46,.15-.55-11.25-2.91-22.15-6.91-32.5-12.24,.38-.9,.41-1.79,.19-2.63,1.44,.22,2.97,.25,4.41,.52,5.58,2.3,11.21,4.35,16.8,6.2,.2,.07,.35-.23,.14-.32-9.77-4.02-19.02-8.77-28.03-13.93-4.23-3.54-8.69-6.82-13.32-9.83,2.15,1.02,4.35,1.91,6.39,2.79,3.19,1.37,6.43,2.61,9.7,3.73,14.25,7.61,28.51,15.21,42.88,22.59Zm40.33-20.36c-15.01,5.96-31.27,7.87-47.18,5.55-6.75-.98-13.22-2.72-19.44-5.08-1.99-.53-3.97-1.12-5.93-1.82-4.09-1.29-8.15-2.71-12.14-4.28-.92-.43-1.84-.86-2.76-1.29,3.31,.37,6.65,.64,9.97,1.03,.99,.27,1.99,.53,2.97,.79,11.44,3.01,23,4.81,34.67,6.53,.22,.03,.27-.31,.05-.34-11.68-1.91-23.22-5.12-34.51-8.69,.59-.03,1.17-.07,1.75-.12,1.79,.14,3.6,.21,5.42,.26,15.74,3.42,31.97,5.09,47.13,6.64,.24,.02,.23-.35,0-.38-13.88-1.52-27.64-4.65-41.08-8.58,1.32-.55,2.59-1.27,3.69-2.13,1.14-.18,2.28-.34,3.45-.37,1.67-.05,3.23,.15,4.78,.44,6.66,1.99,13.36,3.84,19.98,5.94,.13,.04,.22-.15,.09-.2-8.36-3.23-16.58-6.84-24.94-10.08,.32-.86,.46-1.76,.38-2.69,1.47-.06,2.96-.25,4.44-.1,1.49,.15,2.94,.46,4.38,.84,14.91,6.13,29.84,12.19,44.82,18.13Zm12.01-42.79l5.95,.75c2.25,.28,4.19,.36,1.9,2.67-2.57,2.6-7.1,4.2-10.26,5.71-7.16,3.43-14.64,5.97-22.26,7.7-14.55,3.31-29.5,3.59-44.13,1.58-2.63-2.38-6.16-3.7-9.65-4.76,1.07,.13,2.14,.26,3.19,.38,12.57,1.39,25.09,1.08,37.65-.28,.24-.03,.2-.4-.04-.38-12.71,1.04-25.57,.28-38.13-1.95-4.94-.88-9.75-2.12-14.54-3.48,.91-.07,1.82-.15,2.73-.24,6.55,.28,13.08,.38,19.48,.49,20.83,.34,41.64-.65,62.37-2.75,.19-.02,.2-.33,0-.32-20.15,1.12-40.33,1.21-60.49,.06-1.97-.11-3.94-.26-5.91-.42,1.99-.56,3.97-1.18,5.92-1.87,5.07-1.11,10.12-1.98,15.36-2.38,8.33,.84,16.65,1.5,24.85,2.16,.39,.03,.49-.58,.1-.63-9.61-1-19.13-2.52-28.63-4.16,1.52-1.03,2.81-2.27,3.6-3.83,.15-.31,.28-.61,.39-.92,16.83,2.37,33.67,4.71,50.53,6.84Zm-40.74-41.14c3.17-.96,6.36-1.68,9.6-2.22,17.97-1.42,35.95-2.87,53.91-4.54l5.97-.55c2.25-.21,4.17-.56,2.4,2.13-1.99,3.02-6.1,5.51-8.88,7.62-6.31,4.79-13.12,8.8-20.22,12.07-14,6.45-29.05,9.93-44.24,11.05-4.16,.31-8.29,.38-12.41,.32-1.5-.66-3.22-1.1-5.02-1.4,2.63-.48,5.27-1.13,7.87-1.8,10.88-1.46,21.67-3.62,32.27-6.19,.2-.05,.17-.38-.04-.33-21.75,5.02-43.81,6.02-65.92,5.68h0c32.76-1.13,65.84-10.93,96.88-20.15,.21-.06,.12-.39-.09-.34-25.87,6.89-52.11,9.66-78.37,12.94,1.97-.99,3.92-2.02,5.84-3.1,4.43-1.22,8.75-2.6,13.25-3.54,11.41-1.48,22.78-3.41,34.06-5.33,.3-.05,.25-.53-.05-.49-12.8,1.93-25.65,3-38.52,3.9,1.05-.71,2.09-1.43,3.12-2.17,.37-.26,.74-.54,1.12-.82,2.51-.84,4.96-1.96,7.48-2.73Zm-2.01-9.27c-.32-.65-.73-1.17-1.21-1.57,10.6-3.99,20.9-8.83,30.74-14.14,.2-.11,.08-.44-.13-.34-11.25,5.34-22.74,9.55-34.41,13.13-1.34-.12-2.77-.02-4.13,.12-2.23,.24-4.47,.51-6.71,.81,28.52-11.42,56.11-26.81,82.19-41.51,.16-.09,.02-.33-.14-.25-20.9,11.03-42.35,21.22-64.31,29.8-14.8,5.78-29.89,10.94-44.7,16.76,4.49-2.32,8.79-5.63,13.16-7.9,2.2-1.14,4.43-2.24,6.68-3.28,3.16-1.23,6.32-2.47,9.44-3.69,17.26-6.78,34.13-14.5,50.77-22.74,.11-.06,.05-.25-.07-.19-16.61,7.5-33.54,14.27-50.6,20.58-5.36,1.99-10.79,3.81-16.24,5.59,3.24-2.64,6.55-5.2,9.92-7.66,4.42-1.8,8.66-4.13,12.71-6.88,30.8-12.5,61.49-25.26,92.05-38.42-7.52,16.53-18.98,30.78-33.23,41.38-15.48,11.52-33.16,17.67-51.77,20.42Z"/></svg>