<?xml version="1.0" encoding="UTF-8"?><svg id="Layer_1" xmlns="http://www.w3.org/2000/svg" xmlns:xlink="http://www.w3.org/1999/xlink" viewBox="0 0 597.3 653.34"><defs><style>.cls-1{fill:url(#_езымянный_градиент_150);}</style><linearGradient id="_езымянный_градиент_150" x1="894.67" y1="-17.08" x2="-567.29" y2="940.46" gradientTransform="matrix(1, 0, 0, 1, 0, 0)" gradientUnits="userSpaceOnUse"><stop offset="0" stop-color="#ddd9d5"/><stop offset=".3" stop-color="#d2d0d1"/><stop offset=".56" stop-color="#898489"/><stop offset=".82" stop-color="#d9d9d8"/><stop offset="1" stop-color="#959097"/></linearGradient></defs><path class="cls-1" d="M415.61,281.06c79.12-7.97,151.45-69.36,181.34-142.6,1.36-3.34-1.38-8.28-5.4-6.6-65.34,27.28-130.33,55.36-195.09,83.99,13.14-10.58,25.05-22.9,35.38-35.88,46.16-46.41,79.06-108.72,93.74-174.4,.71-3.19-2.37-7.11-5.46-4.95-69.5,48.49-127.12,112.19-180.59,179.7-5.6,2.83-10.94,7.05-14.88,9.57-30.59,19.61-60.24,40.64-90.98,60.04-3.67,2.32-7.37,4.63-11.09,6.92-.16-.03-.33-.03-.51,.05-34.27,14.86-68.38,30.09-102.57,45.13-27.92,12.28-57.98,26.51-74.71,53.26-17.69,28.27-6.74,54.7-.3,84.42,7.27,33.57-1.04,69.16-18.75,98.22-6.72,11.03-14.77,21.15-23.75,30.41h.07c-.1,.07-.18,.14-.27,.2-.43,.44-.84,.89-1.27,1.32-1.2,1.95-.22,4.29,1.65,6.57,27.28-24.14,47.02-55.81,52.2-93.43,2.01-14.59,1.71-29.31-1.19-43.76-3.43-17.1-11.29-33.99-10.25-51.73,2.2-37.45,38.21-57.63,68.1-72.39,5.11-2.52,10.2-5.08,15.3-7.63,9.34-2.81,18.79-5.31,28.16-7.92,8.66-2.41,18.87-6.73,27.98-6.34,1.82,.08,3.71,.76,4.81,2.21,4.34,5.65-2.93,14.43-5.94,18.92-15.4,22.96-41.44,34.59-65.32,46.9-8.01-8.01-22.23-4.49-30.4,1.58-.24,.18-.02,.58,.24,.41,4.65-3.13,9.96-4.36,15.52-3.52,7.42,1.12,15.33,5.97,9.92,14.37-2.23,3.46-6.25,6.44-9.05,9.48-2.58,2.8-5,5.72-7.3,8.75-.93,.38-1.85,.78-2.75,1.19-.52,.23-.11,.89,.35,.83,.31-.04,.63-.09,.95-.14-.07,.09-.14,.18-.21,.27-1.18,1.65,1.23,4.12,2.87,2.85,1.65-1.27,3.27-2.61,4.88-3.97,4.05-.18,8.07,.37,11.14,3.04,5.44,4.72,2.09,10-2.57,13.58-7.23,5.54-15.4,9.57-23.35,13.93-1.88,1.03-.49,3.53,1.38,3.22,2.83-.46,5.6-1.2,8.32-2.13,7.76,3.31,7.53,13.37,1.61,19.42-4.89,4.99-11.88,7.2-18.08,10.07-.6,.28-.81,.87-.77,1.46-1.27,.14-2.57,.46-3.89,1.03-.29,.13-.12,.56,.16,.56,11.87,.31,19.53,11.22,13.33,22.15-5.19,9.15-14.93,9.26-24.16,9.85-2.21,.14-2.41,2.89-.49,3.67,2.57,1.05,5.28,1.49,7.98,1.46,7.51,4.77,9.11,14.28,1.46,21.54-6.17,5.86-15.33,6.19-22.79,9.49-1.69,.74-.56,2.91,.84,3.07,1.71,.19,3.49,.23,5.29,.14,.02,.02,.02,.04,.05,.06,3.41,2.21,6.86,4.28,8.9,7.88,4.21,7.46-1.43,10.99-7.67,12.81-7.38,2.15-14.69,1.65-22.24,1.28-1.38-.07-1.97,2.02-.71,2.64,2.71,1.32,6.06,2.22,9.63,2.66,7.9,4.46,16.71,7.48,25.31,8.39,.42,.05,.61-.65,.22-.82-5.56-2.37-10.75-4.89-15.78-7.61,1.91-.25,3.79-.64,5.57-1.21,3.64,1.56,7.35,2.7,11.12,3.43,2.71,2.51,5.6,4.82,8.65,6.93-.2,1.77-1.49,3.58-4.61,5.3-3.7,2.04-11.65,.97-15.52,.24-9.35-1.75-17.32-6.47-24.47-12.55-1.52-1.29-4.2,.4-2.94,2.27,4.42,6.54,11.28,11.87,19.01,15.05,2.05,2.11,3.77,4.48,3.24,6.68-.61,2.56-4.7,5.54-7.06,6.41-2.23,.81-5.11,.8-7.44,.8-5,0-9.67-1-14.17-2.69-.05-.02-.11-.04-.17-.06-2.67-1.01-5.28-2.26-7.85-3.68-.06-.03-.12-.04-.18-.06-4.05-2.25-8.52-5.37-12.03-9.5l-3.28,2.97s8.86,8.75,22.04,14.77c2.28,1.19,4.73,2.15,7.25,2.84,.1,.03,.2,.07,.31,.11l-.02-.03c5.37,1.43,11.06,1.65,16.25,.25,11.6,10.39,28.24,17.22,43.83,20.26,7.6,9.2,16.78,17.22,27.6,23.61,8.26,4.88,17.53,8.86,27.71,11.67,4.98,1.37,17.25,6.61,24.71,.18,2.4-2.07,2.76-4.24,2.29-6.08-1.37-5.34-6.08-9.92-8.94-14.45-.44-.7-.89-1.41-1.33-2.11,9.05,3.34,18.73,5.76,28.93,7.02,5.47,.68,19.45,4.29,25.34-3.64,1.9-2.55,1.66-4.89,.68-6.76-2.61-4.96-7.91-8.81-11.98-12.75,11.55,2.73,23.72,4.24,36.36,4.28,6.82,.02,24.52,2.38,30.57-8.22,1.95-3.41,1.31-6.26-.18-8.4-4.32-6.23-12.38-10.35-18.14-15.05-3.49-2.84-6.98-5.68-10.46-8.53,4.09,1.26,8.23,2.4,12.42,3.4,14.37,3.41,29.39,5.27,44.72,5.23,7.5-.02,27.34,2.39,32.27-8.84,1.59-3.61,.43-6.61-1.55-8.87-5.75-6.56-15.28-10.87-22.37-15.8-6.74-4.69-13.49-9.37-20.23-14.06,11.1,2.74,22.44,4.6,33.95,5.43,14.73,1.07,29.85,.49,44.98-2,7.4-1.22,27.37-2.02,30.42-13.9,.98-3.82-.64-6.6-2.96-8.51-6.73-5.55-16.84-8.28-24.63-12.01-10.28-4.92-20.57-9.83-30.85-14.75,45.49,10.06,95.11,5.28,136.49-13.16,3-1.34,4.27-6.31,.53-7.74-32.81-12.55-65.72-24.83-98.68-36.98,21.07,.02,42.06-2.14,62.51-6.75,17.36-3.91,34.47-9.63,50.77-17.3,7.97-3.75,30.55-11.35,29.03-24.48-.49-4.23-3.53-6.5-7-7.66-10.08-3.37-22.82-2.72-33.35-3.88-21.8-2.4-43.6-4.82-65.41-7.17-11.59-1.25-23.19-2.39-34.8-3.5-.12-1.17-.38-2.31-.81-3.39,42.05-.8,83.88-9.17,121.64-26.23,16.16-7.3,31.71-16.26,46.05-26.91,7.02-5.21,27.52-17.08,23.3-29.25-1.36-3.92-4.81-5.45-8.44-5.83-10.56-1.12-22.89,2.12-33.42,3.2-21.82,2.22-43.65,4.42-65.46,6.69-22.08,2.3-44.13,4.93-66.17,7.61,.31-.78,.55-1.59,.73-2.43,5.62-.5,11.48-2.44,17.06-4.6ZM515.54,13.9c-21.65,84.43-72.42,154.79-139.54,203.61-9.83,6.32-19.97,12.43-30.37,18.62,.36-.57,.73-1.14,1.09-1.72,10.79-8.76,21.1-17.97,30.86-26.93,26.68-24.5,49.05-51.78,70.49-80.83,.17-.23-.17-.5-.34-.28-21.69,28.44-47.76,54.44-74.65,77.97-6.02,5.26-12.19,10.35-18.44,15.34,.72-1.55,1.42-3.1,2.08-4.69,24.01-23.7,43.33-52.02,64.22-78.42,22.51-28.45,45.58-56.47,68.09-84.92,.45-.57-.33-1.37-.81-.81-24.54,28.46-48.5,57.41-73.09,85.83-17.77,20.54-36.75,40.35-53.07,62.08,.88-4.68,.96-9.47-.81-13.51,18.82-21.43,36.68-43.7,53.89-65.96,.34-.45-.32-.99-.68-.56-17.88,21.63-36.83,42.13-56.18,62.22-.11-.11-.19-.22-.3-.33-3.1-2.87-6.66-3.59-10.35-3.07,51.81-59.51,105.06-118.05,167.92-163.66ZM160.59,290.26c14.38-7.31,28.73-14.65,43.06-22.03-13.11,7.64-26.52,14.86-40.28,21.24-.92,.25-1.85,.51-2.79,.79Zm5.28,50.45c8.5-6.42,18.55-15.58,24.53-25.93,43.47-21.76,83.2-52.97,121.17-82.85,.24-.19-.08-.61-.33-.42-37.75,28.21-78.42,51.13-117.72,76.74,.83-2.22,1.47-4.47,1.81-6.74,1.91-12.82-6.62-16.08-19.04-14.66,16.82-7.32,33.2-15.69,49.39-25.13,34.04-19.85,66.13-42.82,99.22-64.17,6.94-4.48,30.15-22.64,31.82-4.92,.87,9.27-4.69,19.85-8.68,27.82-6.32,12.6-14.61,24.1-24.2,34.41-6.99,5.63-13.67,11.73-20.03,18.38-29.37,23.12-65.12,36.95-100.24,49.07-1.67,.58-1,3.1,.74,2.66,23.04-5.9,46.58-14.21,68.38-25.51,17-3.72,33.91-8.36,50.69-13.73,11.37-2.17,22.76-4.21,34.25-5.86,7.23-1.04,14.49-1.99,21.77-2.67,4.54-.42,11.11,1.32,11.97,7.17,.43,2.92-5.24,7.4-7.17,8.96-9.64,7.8-20.78,14.25-31.62,20.22-36.19,19.93-75.19,30.47-115.6,34.74,.02-.07,.03-.14,.05-.21,3.73-1.55,7.4-3.75,10.98-5.07,2.73-1,5.49-1.87,8.26-2.7,21.6-4.78,42.85-13.01,62.86-20.96,.2-.08,.08-.39-.12-.31-26.78,10.42-54.32,14.78-82.11,20.61-.04-.1-.08-.19-.12-.28,2.61-1.2,5.18-2.58,7.76-3.7,1.13-.49,2.28-.95,3.42-1.42,35.35-9.56,70.19-24.7,102.59-39.21,.17-.08,.05-.38-.13-.31-39.87,16.14-81.01,26.01-121.73,38.43-8.24-1.97-20.48,.63-29,2.82,1.75-.61,3.49-1.24,5.24-1.84,27.88-9.53,55.83-19.21,84.04-27.71,.29-.09,.12-.52-.17-.44-28.62,7.68-57.1,15.34-85.29,24.51-14.28,4.65-28.88,9.16-43.27,14.19,1.93-1.27,3.82-2.59,5.66-3.98Zm108.98,158.85c-7.38,3.35-17.95,3.31-25.9,3.53-27.8,.8-52.97-7.45-75.63-21.56,1.64-.68,3.24-1.41,4.76-2.2,9.1-1.05,18.26-.33,27.04,2.51,.18,.06,.32-.02,.38-.14,9.25,3.51,18.66,6.43,28.1,9.37,.73,.23,1.25-.84,.5-1.1-9.4-3.3-18.56-7.29-27.53-11.6-5.6-2.69-11.04-6.25-16.78-8.79,2.06-3.07,2.8-5.81,2.49-8.26,1.39,.38,2.78,.73,4.13,1.11,3.17,.88,6.34,1.74,9.5,2.64,18.61,8.83,37.87,16.34,56.88,23.21,.62,.22,.86-.74,.27-.97-31.96-12.53-60.62-29.47-89.35-47.03,1.43-.29,2.87-.55,4.29-.88,4.91,1.11,9.83,2.06,14.58,3.54,6.1,3.83,12.69,7.13,18.62,10.44,11.66,6.5,23.59,12.4,35.76,17.91,.44,.2,.72-.45,.31-.67-12.21-6.66-24.24-13.68-35.96-21.16-5.71-3.65-11.28-7.99-17.05-11.86,4.05,.59,8.21,.83,12.11,1.45,3.34,.54,6.62,1.28,9.89,2.06,3.25,1.47,6.55,2.85,9.89,4.14,13.9,8.89,27.35,18.43,39.91,29.17,6.12,5.23,23.46,17.03,10.38,24.38-1.14,0-2.29,.02-3.42-.01,.61,.27,1.24,.52,1.85,.79Zm-184.04,59.11c2.56-.22,5.13-.56,7.68-.65,2.35-.09,4.7-.07,7.04-.01,12.85,3.09,26.26,4.28,39.03,4.13,.4,0,.41-.67,.02-.7-13.12-1.08-25.27-3.91-37.18-7.66,1.13-.61,2.19-1.28,3.16-2.03,3.32-.09,6.65-.33,9.96-.14,.7,.04,1.39,.12,2.09,.18,12.73,3.97,26.16,5.83,39.51,5.5,.58-.01,.55-.81,0-.87-16.63-1.89-31.65-6.24-45.84-12.73,.48-1.46,.64-2.83,.54-4.12,12.36,4.21,25.17,7.23,37.67,9.48,.63,.11,.75-.8,.15-.96-11.77-3.19-23-7.26-34.08-11.69-2.51-1.73-5.12-3.47-7.78-5.02,1.14,.46,2.28,.91,3.39,1.39,15.45,6.64,32.23,10.07,49.08,10.52,4.75,2.74,10.33,5.97,11.33,11.37,1.97,10.66-9.36,12.05-15.65,13.23-8.97,1.69-18.14,2.23-27.25,1.7-14.92-.86-29.33-4.84-42.86-10.92Zm41.97,16.99c-.27-.16-.56-.31-.84-.46,.21,.02,.42,.04,.63,.05,.07,.13,.14,.27,.21,.4Zm1.27-43.81c-4.57-1.23-9.07-2.68-13.51-4.3,7.2,.24,14.57-.27,21.7-.84,12.58,2.24,25.53,2.63,38.03,1.4,.48-.05,.39-.74-.08-.74-14.1,.15-27.33-1.67-40.31-4.96,4.03-1.26,7.69-3.01,10.46-5.47,1.8-.08,3.61-.25,5.36-.24,3.05,0,6.14,.07,9.21,.32,12.47,2.86,25.37,4.12,38.03,4.11,.35,0,.34-.51,0-.54-17.54-1.32-33.28-5.99-48.23-12.66-.09-2.51-1.08-4.98-2.6-7.22,1.1,.09,2.2,.18,3.25,.32,1.74,.24,3.46,.55,5.18,.88,10.84,3.64,21.83,6.78,32.4,9.83,.48,.14,.71-.65,.25-.83-15.87-6.18-31.31-13.87-46.96-20.86-.87,.1-1.8,.11-2.83-.09-.32-.05-.65-.11-.97-.16-.07-.01-.13-.04-.21-.06-.91-.17-1.83-.31-2.75-.48,2.16-.19,4.31-.44,6.45-.76,2.36-.35,5-.79,7.79-1.34,8.47,.42,16.98,1.96,25.01,4.78,5.8,3.47,11.92,6.43,18.27,8.89,7.43,5.66,15.21,10.96,23.21,15.94,3.96,16.74-32.92,19.16-42.54,19.73-14.68,.87-29.42-.86-43.6-4.67Zm72.46-101.93c1.26-.78,2.43-1.66,3.48-2.68,2.93-.09,6-.78,8.85-.78,2.12,0,4.21,.1,6.31,.25,15.84,5.08,33.69,7.03,49.2,9.35,.54,.08,.66-.72,.13-.83-12.15-2.64-24.08-5.87-35.85-9.85-7.97-2.69-15.84-6.19-23.99-8.35-.13-3.89-2.51-7.18-5.86-9.82,32.36,9.61,65.78,16.31,98.65,21.85,.85,.14,1.22-1.14,.36-1.3-42.86-7.99-83.5-20.98-124.37-34.71,2.49,.09,4.98,.22,7.46,.55,5.04,.66,9.92,1.83,14.72,3.28,3.57,1.31,7.17,2.54,10.8,3.71,.25,.09,.5,.19,.76,.28,.04,.02,.08,0,.12,0,23.4,7.43,47.94,11.98,71.85,15.09,.34,.04,.43-.47,.08-.53-29.54-5.68-57.36-15.21-85.26-25.45,4,.44,8.02,.82,12.01,1.26,15.71,4.87,32.02,7.81,48.46,8.83,4.95,1.77,10.01,3.33,15.15,4.69,14.07,5.43,28.57,9.98,42.61,15.2,5.11,1.9,11.96,4.41,15.24,9.08,5.02,7.15,.35,13.65-6.54,16.62-9.76,4.2-21.64,4.43-32.12,4.73-32.94,.93-63.57-6.71-92.24-20.46Zm.14-45.98c3.44,.03,6.9-.03,10.36-.06,28.97,3.63,58.1,3.61,87.27,.73,.28-.03,.23-.45-.05-.43-30.15,1.32-60.21-.76-89.99-5.31,4.39-.47,8.8-1.11,13.21-1.71,41.27,1.04,83.15-3.12,122.76-10.6,.44-.08,.35-.85-.11-.79-44.12,5.21-87.09,6.06-130.59,5.02,3.15-1.4,6.29-2.81,9.55-3.87,1.8-.58,3.63-1.12,5.48-1.61,10.39-.42,20.9-1.69,30.96-2.26,17.87-1.01,35.75-2.04,53.61-3.2,.33-.02,.26-.5-.06-.5-17.25,.13-34.49,.37-51.74,.63-11.96,.18-24.68-.55-36.98,.16,4.82-1.62,9.49-3.69,14.32-5.33,1.98-.67,3.98-1.3,5.98-1.9,12.22-1.23,24.39-3.33,36.39-6.26,24.23,2.55,48.47,4.79,72.54,8.78,7.06,1.17,19.28,4.21,11.52,13.27-4.65,5.43-11.37,7.79-17.94,10.41-10.69,4.26-21.75,7.6-33.01,10.04-38.08,8.25-76.75,5.96-113.5-5.21Zm27.61-29.77s.06-.09,.09-.14c.1,0,.19,0,.29,0-.13,.05-.26,.09-.38,.14Zm-120.97,36.62c-1.56-.65-3.14-1.01-4.72-1.17,28.87-9.32,57.38-20.29,85.77-30.46,.65-.23,.39-1.24-.29-1.04-26.99,7.94-54.47,15.39-81.44,24.06,1.09-1.19,2.19-2.38,3.22-3.6,2.13-2.51,3.68-5.39,3.95-8.37,18.63-8.61,38.34-15.63,58.11-21.05,8.57-2.35,17.22-4.45,25.91-6.31,5.06-1.08,11.87-3.46,17.01-3.13,9.34,.59,7.22,10.85,2.06,15.51-27.94,25.25-64.73,39.1-101.87,43-1.39-3.34-4.25-6.02-7.7-7.45Zm68.56,7.6c-.32-.05-.65-.09-.97-.14-.16-.13-.32-.26-.49-.39,.49,.18,.98,.35,1.46,.52Zm-82.49,25.33c1.3-.54,2.59-1.12,3.85-1.75-.26,.17-.52,.36-.81,.52-.92,.5-1.84,.95-2.76,1.36-.09-.05-.19-.09-.28-.13Zm1.97,1.13c27.05-.36,54.33-3.07,80.6-7.29,.23-.04,.17-.4-.06-.4-24.11,.61-48.28,.83-72.43,1.22,.78-.51,1.55-1.02,2.31-1.55,4.73-3.35,9.98-7.52,10.17-13.82,.02-.8-.06-1.57-.19-2.33,3.01,0,6.02-.09,9.03-.27,.04,.01,.06,.04,.11,.05,15.7,1.03,31.1,.9,46.71,3.54,8,1.35,18.67,2.08,25.15,7.47,2.19,1.83,3.8,4.61,3.45,7.44-.29,2.36-1.89,4.4-3.83,5.77-4.03,2.85-9.51,3.19-14.17,4.61-26.85,8.14-53.58,9.14-81.24,8.12,.37-4.78-1.87-9.81-5.6-12.54Zm63.78,17.53c-.39-.13-.78-.26-1.16-.37,.16-.02,.32-.05,.48-.08,.23,.15,.45,.3,.68,.45Zm-88.43,51.68c8.94-2.09,16.86-9.25,18.34-18.41,.49-3.02,.02-6.18-1.12-9.08,25.54,1.44,51.71-.42,75.73-4.45,.08-.01,.05-.13-.02-.13-27.96-.65-55.69-2.77-83.46-4.53-.42-.23-.84-.45-1.27-.63,9.2-1.88,18.56-6.68,21.38-15.94,2.88,.64,5.79,1.19,8.72,1.62-.14,.31,0,.71,.46,.76,13.65,1.49,27.17,2.74,40.54,6.07,5.73,1.43,11.53,2.97,17.09,4.95,6.07,2.16,13.87,8.25,5.13,15.68-2.26,1.92-7.92,3.84-10.07,4.69-23.32,9.29-48.18,10.54-72.76,6.6-1.43-.23-1.97,1.67-.6,2.18,5.07,1.87,10.31,3.27,15.63,4.29-.16,.33,.09,.84,.53,.9,8.87,1.14,17.24,2.67,25.11,7.23,.98,.55,1.9,1.18,2.83,1.81,.03,.01,.06,.01,.09,.02,.43,.15,.82,.38,1.23,.58,.35,.17,.7,.33,1.03,.54,.53,.34,.99,.76,1.45,1.21,.06,.06,.13,.12,.19,.18,.28,.29,.61,.51,.85,.84,2.88,3.91,1.46,8.22-1.48,11.6-.73,.84-1.6,1.26-2.5,1.49-2.66,1.7-9.39,2.24-11.97,2.71-15.64,2.87-30.97,1.24-46.24-2.16,.5-1.01,.94-2.06,1.27-3.18,.95-3.29,.84-6.36-.05-9.07,16.43,4.08,33.5,5.73,49.51,4.3,.75-.07,.72-1.05,0-1.14-19.92-2.55-37.77-6.17-55.54-11.51Zm2.02,58.5c-.09-.05-.18-.1-.27-.15-.76-.43-1.43-.25-1.87,.19-3.66,.04-7.32-.11-10.98-.36,1.34-.89,2.55-1.92,3.57-3.11,3.72-4.38,3.24-8.67,.83-12.26,8.87,2.45,18.01,3.98,27.35,4.52,.49,.03,.61-.79,.11-.86-10.99-1.62-21.49-4.28-31.62-7.96-2.17-1.66-4.66-2.99-7.04-3.86,7.53-.87,15.17-4.18,19.93-9.82,2.15,.95,4.34,1.81,6.57,2.55,.04,.06,.08,.12,.14,.17,3.54,2.8,7.37,4.33,11.44,6.24,3.15,1.48,9.85,4.29,10.67,7.86,1.43,6.23-2.54,11.16-7.69,13.05-6.86,2.52-13.97,3.56-21.15,3.79Zm2.03,25.67c2.11-.2,4.22-.14,6.32,.05,6.19,1.88,12.51,3.3,18.78,4.31,.44,.07,.52-.55,.11-.66-8.07-2.19-15.57-5.05-22.89-8.31,.5-.49,.96-1.02,1.35-1.59,.24-.01,.48-.02,.72-.02,2.34-.01,4.65,.19,6.93,.63,9.47,4.57,19.69,7.71,29.72,9.6,.46,.09,.66-.59,.2-.71-13.91-3.84-25.42-10.15-36.23-18-.34-1.23-.86-2.33-1.53-3.33,12.48,7.58,26.41,12.33,40.8,14.28,3.72,2.54,9.32,6.22,9.63,9.95,.85,10.21-11.76,6.96-16.63,6.16-8.91-1.46-17.81-3.14-26.34-5.94-4.88-1.6-9.45-3.62-13.72-5.95,.94-.2,1.88-.39,2.79-.47Zm25.84,17.95c-.44-.44-.87-.88-1.27-1.31,.73,.15,1.46,.31,2.19,.46-.42,.03-.83,.08-1.25,.09,.12,.25,.21,.51,.33,.77Zm-18.63,10.31c-12.14-3.32-23.86-7.64-34.39-14.32,4.42-2.59,5.82-6.11,5.27-9.58,10.92,9.02,23.8,15.9,36.77,20.79,.32,.12,.54-.4,.23-.55-12.84-6.6-23.65-14.96-33.82-24.26,1.33,.16,2.66,.24,4,.26,10,7.43,23.02,12.23,35.78,15.24-.28,2.02,.49,3.41,1.79,5.59,2.26,3.78,9.81,8.9-5.57,9.45-2.63,.09-7.52-1.94-10.06-2.63Zm77.8,37.17c1.3,2.15,2.66,3.85-2.03,4.12-5.27,.3-10.7-1.98-15-3.2-9.75-2.76-18.59-6.63-26.49-11.37-8.05-4.84-15.05-10.6-21.11-17.07,2.01,.16,4.19-.03,6.16-.66,8.02,6.01,16.38,11.48,24.6,16.41,.28,.17,.57-.3,.3-.48-7.95-5.29-15.04-11.22-21.66-17.54,1.39-1.04,2.45-2.47,2.95-4.34,12.13,10.89,25.8,20.03,39.22,26.91,.32,.16,.55-.26,.27-.47-15.63-11.33-29.37-24.63-41.18-39.84,3.16,.6,7.02,1.48,10.93,1.96-1.65,.3-3.38,.29-5.17-.19,10.41,10.31,22.45,18.93,35.98,25.34,2.91,4.92,5.81,9.84,8.77,14.72l3.45,5.7Zm44.36-18.68c1.92,2.06,3.77,3.64-.96,4.65-5.31,1.13-11.49-.43-16.22-1.05-10.73-1.4-20.84-4.1-30.21-7.88-13.44-5.41-25.26-13.06-35.56-22.27,1.26,.03,2.49-.03,3.68-.18,12.14,7.96,25.27,14.51,38.16,20.1,.22,.1,.37-.23,.15-.34-12.11-5.9-22.75-13.31-32.68-21.55,1.58-.95,2.88-2.31,3.79-4.18,16.67,13.38,35.52,23.94,52.29,29.16,.39,.12,.56-.41,.26-.62-17.7-12.28-35.63-22.78-51.24-37.97-2.47-2.41-4.8-4.92-7.06-7.5,1.05,.05,2.1,.09,3.16,.12,16.47,14.39,35.55,25.61,56.78,32.51,3.52,3.84,7.02,7.7,10.57,11.51l5.09,5.47Zm45.86-29.6l7.06,5.96c2.67,2.25,5.18,3.91-.48,5.85-6.35,2.18-14.17,1.18-20.07,1.12-13.39-.12-26.19-1.95-38.27-5.19-19.85-5.33-37.54-14.57-53.05-26.52,2.72,.14,5.47,.12,8.15,.43,3.48,.4,6.91,1.19,10.37,1.69,9.65,4.98,19.45,9.51,28.89,13.85,.51,.24,.87-.55,.36-.8-11.45-5.49-21.87-12.18-31.88-19.39,1.51-.36,3.02-.79,4.48-1.31,3.41,.62,7.22-.05,10.64,.53,2.17,.37,4.23,.97,6.24,1.72,14.43,9.13,29.89,16.53,45.34,22.07,.53,.19,.91-.69,.39-.92-20.19-8.92-37.09-20.52-52.06-34.05,.06-.37,.13-.73,.16-1.13,.17-2.45-.28-4.63-1.15-6.59,11.93,8.08,24.28,15.33,36.9,22.4,.29,.16,.48-.29,.21-.46-15.21-9.2-29.68-20.01-43.3-31.4,1.9-.08,3.8-.2,5.7-.35,13.39,9.81,27.77,18.17,42.97,24.76,10.75,9.31,21.53,18.58,32.4,27.75Zm56.92-32.78l8.73,6.25c3.3,2.36,6.32,4.11,.42,6.18-6.63,2.33-15.39,1.31-21.88,1.29-14.73-.06-29.1-1.92-42.9-5.28-23.77-5.79-45.61-16.13-65.3-29.56,1.06-.17,2.11-.35,3.16-.54,2.56,.32,5.25,.29,7.7,.62,3.14,.42,6.22,1.07,9.22,2,15.54,7.34,31.38,13.67,46.8,19.04,.28,.1,.48-.3,.2-.43-16.71-7.53-33.02-15.76-48.9-24.81,1.44-.45,2.88-.95,4.29-1.51,1.96,.12,3.93,.26,5.87,.6,3.57,.62,6.88,1.83,10.18,3.15,20.35,10.81,41.75,19.53,62.69,26.35,.36,.12,.61-.46,.26-.62-24.67-10.65-46.48-23.91-67.18-38.7,.79-1.61,1.23-3.42,1.22-5.45,18.39,10.82,37.75,20,56.74,27.74,.3,.12,.5-.31,.21-.46-20.59-10.92-40.3-23.12-59.55-36.25-1.01-1.71-2.28-3.21-3.72-4.56,.85,.15,1.7,.26,2.55,.4,13.93,8.76,28.69,16.06,44.06,21.68,14.99,11.03,30.01,22.03,45.15,32.87Zm63.42-45.61l9.62,4.77c3.63,1.8,6.9,3.04,1.41,6.04-6.16,3.36-14.97,3.76-21.39,4.78-14.55,2.3-29.03,2.77-43.19,1.66-27.82-2.18-54.16-10.53-78.26-23.11,8.32,.92,16.71,1.48,25.04,2.59,16.41,4.83,33.24,8.31,49.61,11.24,.34,.06,.42-.46,.09-.53-17.78-3.62-34.4-9.53-50.57-16.49,10.14-.88,20.13-.69,30.25,1.02,21.04,7.29,42.47,12.51,62.42,15.86,.76,.13,1.09-.98,.32-1.17-24.7-6.17-48.64-14.65-71.35-25.97,.83-1.91,.89-3.79,.42-5.58,3.17,.47,6.53,.53,9.68,1.1,12.25,4.87,24.61,9.24,36.89,13.14,.44,.14,.76-.49,.31-.67-21.46-8.53-41.76-18.61-61.54-29.56-9.29-7.51-19.09-14.47-29.24-20.85,4.71,2.17,9.55,4.06,14.04,5.92,7.01,2.9,14.11,5.53,21.3,7.91,31.3,16.14,62.6,32.27,94.15,47.92Zm88.56-43.19c-32.97,12.65-68.65,16.69-103.59,11.78-14.81-2.08-29.03-5.76-42.69-10.78-4.37-1.11-8.71-2.37-13.02-3.86-8.99-2.73-17.89-5.74-26.66-9.09-2.02-.91-4.03-1.82-6.05-2.73,7.27,.8,14.6,1.35,21.89,2.18,2.18,.56,4.37,1.13,6.52,1.68,25.11,6.38,50.51,10.2,76.13,13.86,.47,.07,.59-.66,.12-.73-25.64-4.05-50.98-10.86-75.78-18.44,1.29-.06,2.57-.16,3.85-.25,3.93,.3,7.91,.44,11.9,.55,34.55,7.25,70.21,10.8,103.49,14.08,.52,.05,.51-.75,0-.81-30.48-3.22-60.7-9.86-90.21-18.21,2.91-1.17,5.69-2.7,8.11-4.51,2.5-.38,5.02-.72,7.57-.79,3.68-.11,7.09,.32,10.5,.94,14.62,4.22,29.32,8.16,43.88,12.6,.28,.09,.49-.32,.2-.43-18.36-6.86-36.41-14.52-54.77-21.38,.7-1.82,1.01-3.74,.83-5.71,3.24-.13,6.5-.53,9.74-.22,3.27,.31,6.46,.98,9.62,1.79,32.73,13.01,65.53,25.85,98.42,38.47Zm26.37-90.79l13.06,1.6c4.93,.6,9.21,.75,4.17,5.67-5.65,5.52-15.59,8.91-22.52,12.12-15.72,7.28-32.15,12.67-48.87,16.34-31.95,7.02-64.76,7.61-96.89,3.36-5.77-5.05-13.52-7.85-21.19-10.1,2.35,.29,4.7,.56,7.01,.81,27.6,2.95,55.1,2.29,82.67-.58,.52-.05,.43-.84-.09-.8-27.91,2.22-56.15,.58-83.73-4.14-10.85-1.86-21.42-4.5-31.92-7.38,2-.14,4-.31,5.99-.52,14.39,.59,28.73,.81,42.76,1.03,45.74,.71,91.43-1.38,136.95-5.84,.43-.04,.44-.7,0-.67-44.25,2.37-88.56,2.57-132.82,.13-4.32-.24-8.65-.54-12.97-.89,4.37-1.18,8.71-2.5,12.99-3.97,11.14-2.36,22.22-4.2,33.74-5.04,18.28,1.79,36.56,3.17,54.57,4.59,.86,.07,1.08-1.24,.21-1.33-21.1-2.12-42.01-5.34-62.87-8.83,3.34-2.18,6.17-4.82,7.91-8.13,.34-.65,.61-1.3,.86-1.96,36.96,5.03,73.93,9.99,110.96,14.52Zm-89.45-87.28c6.96-2.04,13.97-3.56,21.07-4.71,39.47-3.02,78.93-6.09,118.37-9.63l13.11-1.18c4.95-.44,9.16-1.18,5.26,4.53-4.38,6.41-13.39,11.69-19.5,16.16-13.86,10.16-28.8,18.67-44.39,25.61-30.74,13.69-63.8,21.07-97.15,23.44-9.14,.65-18.21,.81-27.25,.68-3.3-1.4-7.07-2.33-11.02-2.96,5.78-1.02,11.58-2.4,17.27-3.82,23.88-3.1,47.58-7.69,70.86-13.14,.44-.1,.37-.8-.08-.7-47.77,10.65-96.2,12.76-144.75,12.04h.02c71.93-2.39,144.58-23.19,212.73-42.75,.46-.13,.26-.83-.2-.71-56.81,14.62-114.42,20.5-172.07,27.45,4.33-2.1,8.61-4.28,12.81-6.58,9.72-2.59,19.22-5.52,29.1-7.51,25.06-3.14,50.02-7.24,74.79-11.31,.66-.11,.56-1.13-.12-1.04-28.1,4.09-56.32,6.36-84.58,8.28,2.3-1.51,4.6-3.03,6.84-4.61,.8-.56,1.63-1.14,2.46-1.74,5.5-1.78,10.88-4.17,16.42-5.79Zm-4.41-19.67c-.7-1.37-1.59-2.48-2.67-3.34,23.28-8.46,45.9-18.73,67.49-30,.43-.23,.18-.93-.28-.72-24.7,11.34-49.92,20.26-75.56,27.85-2.95-.25-6.09-.05-9.07,.26-4.89,.5-9.81,1.08-14.72,1.72,62.62-24.22,123.2-56.87,180.46-88.07,.34-.19,.04-.7-.31-.52-45.9,23.4-92.99,45.01-141.21,63.22-32.5,12.27-65.63,23.21-98.15,35.56,9.86-4.91,19.31-11.95,28.91-16.76,4.84-2.42,9.73-4.76,14.68-6.97,6.95-2.61,13.87-5.23,20.73-7.84,37.91-14.38,74.94-30.76,111.49-48.25,.25-.12,.1-.52-.16-.41-36.47,15.91-73.64,30.27-111.11,43.66-11.78,4.21-23.7,8.08-35.66,11.86,7.12-5.6,14.38-11.04,21.78-16.25,9.7-3.81,19.02-8.77,27.9-14.59,67.63-26.52,135.03-53.59,202.11-81.52-16.52,35.07-41.67,65.3-72.96,87.79-33.99,24.44-72.81,37.49-113.68,43.32Z"/></svg>